<?xml version="1.0" encoding="UTF-8"?>
<svg id="Layer_2" data-name="Layer 2" xmlns="http://www.w3.org/2000/svg" viewBox="0 0 273.14 109.94">
  <defs>
    <style>
      .cls-1 {
        fill: #e4722d;
      }

      .cls-1, .cls-2 {
        stroke-width: 0px;
      }

      .cls-2 {
        fill: #ae3525;
      }
    </style>
  </defs>
  <g id="Layer_1-2" data-name="Layer 1">
    <g>
      <g>
        <path class="cls-2" d="M12.2,30.83c3.86,10.5,2.05,26.85,2.57,38.15.53,11.29-.61,23.02,1.51,34.03,1.43,7.41,2.78,7.11,10.18,6.81,10.04-.4,20-.31,29.98-.83,22.37-1.17,45.18-.99,67.44-1.89,4.82-.2,53.3.1,57.7,1.49,2.57-5.19-42.17-15.31-41.88-21.1.4-7.78,1.18-15.53,1.2-23.33.02-8.63,2.97-34.99-4.05-40.59-5.46-4.34-15.52-1.6-21.8-1.6-18.13,0-36.27.2-54.34-.66-12.02-.57-25.06-1.51-36.96.65-3.26.59-11.05,3.15-10.88,3.42l-.68,5.45Z"/>
        <path class="cls-1" d="M11.15,36.78c25.63,3.12,52.5-.4,78.42-.76,12.67-.18,25.54-1.35,38.18-1.01,4.45.12,11.68,1.12,15.4-1.75,6.12-4.73,5.56-15.94,3.63-22.5-3.58-12.14-10.52-9.65-21.2-10.23-27.68-1.5-55.32.54-82.94,2.24C31.27,3.47,14.9-2.09,5.06,5.76c-8.44,6.73-6.25,29.52,6.1,31.02Z"/>
        <path class="cls-1" d="M99.9,43.36c.09,4-1.77,7.5-1.81,11.53,9.02,4.25,16.69,2.52,26.18,3.42.51-3.38,1.06-8.6.14-11.92-2.07-7.51-18.84-3.34-24.52-3.03Z"/>
        <path class="cls-1" d="M67.48,43.36c.09,4-1.77,7.5-1.81,11.53,9.02,4.25,16.69,2.52,26.19,3.42.51-3.38,1.06-8.6.14-11.92-2.07-7.51-18.84-3.34-24.52-3.03Z"/>
        <path class="cls-1" d="M48.94,63.26c.09,4-1.77,7.5-1.81,11.53,9.02,4.25,16.69,2.52,26.18,3.42.51-3.38,1.06-8.6.14-11.92-2.07-7.51-18.84-3.34-24.52-3.03Z"/>
        <path class="cls-1" d="M114.24,63.26c.07,4-1.44,7.5-1.47,11.53,7.33,4.25,13.56,2.52,21.28,3.42.41-3.38.86-8.6.12-11.92-1.68-7.51-15.31-3.34-19.93-3.03Z"/>
        <path class="cls-1" d="M40.03,76.78c-.07-4,1.41-7.5,1.44-11.53-7.18-4.25-13.28-2.52-20.83-3.42-.41,3.38-.84,8.6-.11,11.92,1.65,7.51,14.99,3.34,19.51,3.03Z"/>
        <path class="cls-1" d="M56.92,58.2c-.09-4,1.77-7.5,1.81-11.53-9.02-4.25-16.69-2.52-26.18-3.42-.51,3.38-1.06,8.6-.14,11.92,2.07,7.51,18.84,3.34,24.52,3.03Z"/>
        <path class="cls-1" d="M100.49,83.72c.09,4-1.77,7.5-1.81,11.53,9.02,4.25,16.69,2.52,26.18,3.42.51-3.38,1.06-8.6.14-11.92-2.07-7.51-18.84-3.34-24.52-3.03Z"/>
        <path class="cls-1" d="M27.3,83.72c.09,4-1.77,7.5-1.81,11.53,9.02,4.25,16.69,2.52,26.18,3.42.51-3.38,1.06-8.6.14-11.92-2.07-7.51-18.84-3.34-24.52-3.03Z"/>
        <path class="cls-1" d="M80.31,72.33c-.22,2.15-.3,3.82,1.54,4.63,2.2.97,5.86.31,8.23.2,3.33-.16,6.66-.82,9.99-.74,4.59.1,7,.51,8.23-4.93.93-4.13.98-8.96-3.47-9.2-4.85-.26-9.68.24-14.51.24-2.26,0-5.19-.76-7.36.22-2.77,1.25-2.34,6.59-2.64,9.58Z"/>
        <path class="cls-1" d="M70.59,83.53c-2.62.12-9.95-.89-11.39,1.65-.74,1.29-.89,5.72-.5,7.12.44,1.57,2.01,3.62,3.47,4.28,2.84,1.28,7.84.3,10.94.29,4.02,0,7.99.44,11.98,0,2.07-.23,3.15,0,4.09-2.2.6-1.4.98-4,.9-5.59-.47-9.71-13.86-5.81-19.48-5.55Z"/>
        <path class="cls-1" d="M28.36,51.5c-.05,1.12.14,4.32-.67,5.04-1.57,1.4-8.16.25-9.65-1.14-2.29-2.14-1.64-7.59-1.09-10.5.66-3.47,4.98-3.81,7.74-3.01,4.78,1.37,3.87,5.4,3.67,9.61Z"/>
        <path class="cls-1" d="M144.83,85.08c-.48-2.53-5.07-3.44-10.03-2.16-5.95,1.54-2.08,6.32-1.92,8.92.09,1.45-.81,4.2,1.38,5.27,1.47.72,5.72.63,8.01.45,3.59-.28,3.71-.47,4.27-2.27,1.07-3.44-1.09-6.98-1.7-10.22Z"/>
        <path class="cls-1" d="M22.86,82.81c-2.36-1.63-4.26.51-4.49,2.72-.21,2.05-1.13,8.42.18,10.22.47.65,2.09,1.18,3.13.63,1.38-.73,1.03-1.52,1.24-2.9.55-3.59.65-7.22.63-10.92.1-.28.1.16.23.25h-.91Z"/>
      </g>
      <g>
        <path class="cls-2" d="M137.23,30.83c3.86,10.5,2.05,26.85,2.57,38.15.53,11.29-.61,23.02,1.51,34.03,1.43,7.41,8.6,2.99,16.01,2.7,10.04-.4,14.18,3.8,24.16,3.28,22.37-1.17,45.18-.99,67.44-1.89,4.82-.2,10.41-1.49,14.81-.1,2.57-5.19.72-13.72,1.02-19.51.4-7.78,1.18-15.53,1.2-23.33.02-8.63,2.97-34.99-4.05-40.59-5.46-4.34-15.52-1.6-21.8-1.6-18.13,0-36.27.2-54.34-.66-12.02-.57-25.06-1.51-36.96.65-3.26.59-11.05,3.15-10.88,3.42l-.68,5.45Z"/>
        <path class="cls-1" d="M136.19,36.78c25.63,3.12,52.5-.4,78.42-.76,12.67-.18,25.54-1.35,38.18-1.01,4.45.12,11.68,1.12,15.4-1.75,6.12-4.73,5.56-15.94,3.63-22.5-3.58-12.14-10.52-9.65-21.2-10.23-27.68-1.5-55.32.54-82.94,2.24-11.37.7-27.74-4.86-37.58,2.99-8.44,6.73-6.25,29.52,6.1,31.02Z"/>
        <path class="cls-1" d="M224.94,43.36c.09,4-1.77,7.5-1.81,11.53,9.02,4.25,16.69,2.52,26.19,3.42.51-3.38,1.06-8.6.14-11.92-2.07-7.51-18.84-3.34-24.52-3.03Z"/>
        <path class="cls-1" d="M192.52,43.36c.09,4-1.77,7.5-1.81,11.53,9.02,4.25,16.69,2.52,26.18,3.42.51-3.38,1.06-8.6.14-11.92-2.07-7.51-18.84-3.34-24.52-3.03Z"/>
        <path class="cls-1" d="M173.98,63.26c.09,4-1.77,7.5-1.81,11.53,9.02,4.25,16.69,2.52,26.18,3.42.51-3.38,1.06-8.6.14-11.92-2.07-7.51-18.84-3.34-24.52-3.03Z"/>
        <path class="cls-1" d="M239.27,63.26c.07,4-1.44,7.5-1.47,11.53,7.33,4.25,13.56,2.52,21.28,3.42.41-3.38.86-8.6.12-11.92-1.68-7.51-15.31-3.34-19.93-3.03Z"/>
        <path class="cls-1" d="M165.07,76.78c-.07-4,1.41-7.5,1.44-11.53-7.18-4.25-13.28-2.52-20.83-3.42-.41,3.38-.84,8.6-.11,11.92,1.65,7.51,14.99,3.34,19.51,3.03Z"/>
        <path class="cls-1" d="M181.95,58.2c-.09-4,1.77-7.5,1.81-11.53-9.02-4.25-16.69-2.52-26.19-3.42-.51,3.38-1.06,8.6-.14,11.92,2.07,7.51,18.84,3.34,24.52,3.03Z"/>
        <path class="cls-1" d="M152.67,56.11c-.08-4,1.55-7.5,1.58-11.53-7.91-4.25-14.63-2.52-22.96-3.42-.45,3.38-.93,8.6-.13,11.92,1.82,7.51,16.53,3.34,21.51,3.03Z"/>
        <path class="cls-1" d="M225.52,83.72c.09,4-1.77,7.5-1.81,11.53,9.02,4.25,16.69,2.52,26.18,3.42.51-3.38,1.06-8.6.14-11.92-2.07-7.51-18.84-3.34-24.52-3.03Z"/>
        <path class="cls-1" d="M152.34,83.72c.09,4-1.77,7.5-1.81,11.53,9.02,4.25,16.69,2.52,26.18,3.42.51-3.38,1.06-8.6.14-11.92-2.07-7.51-18.84-3.34-24.52-3.03Z"/>
        <path class="cls-1" d="M205.34,72.33c-.22,2.15-.3,3.82,1.54,4.63,2.2.97,5.86.31,8.23.2,3.33-.16,6.66-.82,9.99-.74,4.59.1,7,.51,8.23-4.93.93-4.13.98-8.96-3.47-9.2-4.85-.26-9.68.24-14.51.24-2.26,0-5.19-.76-7.36.22-2.77,1.25-2.34,6.59-2.65,9.58Z"/>
        <path class="cls-1" d="M195.62,83.53c-2.62.12-9.95-.89-11.39,1.65-.74,1.29-.89,5.72-.5,7.12.44,1.57,2.01,3.62,3.47,4.28,2.84,1.28,7.84.3,10.94.29,4.02,0,7.99.44,11.98,0,2.07-.23,3.15,0,4.09-2.2.6-1.4.98-4,.9-5.59-.47-9.71-13.86-5.81-19.48-5.55Z"/>
        <path class="cls-1" d="M263.66,43.55c-.94-1.94-6.44-2.18-8.04-1.19-2.36,1.45-1.52,5.34-1.87,7.65-.39,2.55-.68,5.28,1.79,6.89,3.22,2.09,7.7.82,8.35-2.91.36-2.08.04-3.27-.24-5.21-.23-1.59.64-3.92,0-5.23Z"/>
        <path class="cls-1" d="M261.63,85.08c-.26-2.53-2.7-3.44-5.34-2.16-3.16,1.54-1.11,6.32-1.02,8.92.05,1.45-.43,4.2.73,5.27.78.72,3.05.63,4.26.45,1.91-.28,1.97-.47,2.27-2.27.57-3.44-.58-6.98-.91-10.22Z"/>
      </g>
    </g>
  </g>
</svg>