<?xml version="1.0" encoding="UTF-8"?>
<svg xmlns="http://www.w3.org/2000/svg" xmlns:xlink="http://www.w3.org/1999/xlink" viewBox="0 0 265.56 131.44">
  <defs>
    <style>
      .cls-1 {
        fill: url(#_Áåçûìÿííûé_ãðàäèåíò_151);
      }

      .cls-1, .cls-2, .cls-3, .cls-4, .cls-5, .cls-6, .cls-7, .cls-8, .cls-9, .cls-10, .cls-11, .cls-12, .cls-13, .cls-14, .cls-15 {
        stroke-width: 0px;
      }

      .cls-2 {
        fill: #f5ee8f;
      }

      .cls-2, .cls-6, .cls-7, .cls-9, .cls-15 {
        mix-blend-mode: soft-light;
        opacity: .97;
      }

      .cls-3 {
        fill: #f3bac0;
        opacity: .6;
      }

      .cls-3, .cls-5, .cls-8, .cls-14 {
        mix-blend-mode: multiply;
      }

      .cls-16 {
        isolation: isolate;
      }

      .cls-4 {
        fill: #e86c7c;
      }

      .cls-5 {
        opacity: .5;
      }

      .cls-5, .cls-8, .cls-14 {
        fill: #d87290;
      }

      .cls-6 {
        fill: #f5af8f;
      }

      .cls-7 {
        fill: #f5d3d2;
      }

      .cls-8 {
        opacity: .31;
      }

      .cls-9 {
        fill: #f5ffff;
      }

      .cls-10 {
        fill: #ab3d52;
      }

      .cls-11 {
        fill: url(#_Áåçûìÿííûé_ãðàäèåíò_59);
        mix-blend-mode: screen;
      }

      .cls-12 {
        fill: url(#_Áåçûìÿííûé_ãðàäèåíò_152);
      }

      .cls-13 {
        fill: #b24d61;
      }

      .cls-14 {
        opacity: .3;
      }

      .cls-15 {
        fill: #f5a995;
      }
    </style>
    <linearGradient id="_Áåçûìÿííûé_ãðàäèåíò_152" data-name="Áåçûìÿííûé ãðàäèåíò 152" x1="-781.04" y1="645.49" x2="-781.04" y2="470.03" gradientTransform="translate(-407.99 886.36) rotate(85.6) scale(1 -1)" gradientUnits="userSpaceOnUse">
      <stop offset="0" stop-color="#ff8777"/>
      <stop offset=".98" stop-color="#ffb880"/>
    </linearGradient>
    <linearGradient id="_Áåçûìÿííûé_ãðàäèåíò_151" data-name="Áåçûìÿííûé ãðàäèåíò 151" x1="-779.61" y1="743.83" x2="-779.61" y2="573.33" gradientTransform="translate(-407.99 886.36) rotate(85.6) scale(1 -1)" gradientUnits="userSpaceOnUse">
      <stop offset=".02" stop-color="#ffb880"/>
      <stop offset="1" stop-color="#ff8777"/>
    </linearGradient>
    <linearGradient id="_Áåçûìÿííûé_ãðàäèåíò_59" data-name="Áåçûìÿííûé ãðàäèåíò 59" x1="-802.09" y1="633" x2="-731.87" y2="633" gradientTransform="translate(-407.99 886.36) rotate(85.6) scale(1 -1)" gradientUnits="userSpaceOnUse">
      <stop offset="0" stop-color="#000"/>
      <stop offset=".04" stop-color="#0b0300"/>
      <stop offset=".4" stop-color="#6a1e00"/>
      <stop offset=".69" stop-color="#b03200"/>
      <stop offset=".89" stop-color="#db3f00"/>
      <stop offset="1" stop-color="#ec4400"/>
    </linearGradient>
  </defs>
  <g class="cls-16">
    <g id="Layer_2" data-name="Layer 2">
      <g id="Layer_1-2" data-name="Layer 1">
        <g>
          <path class="cls-12" d="M68.93,119.17c1.73-.86,3.41-1.65,5.07-2.32,8.82-3.63,39.97-10.84,55.79-14.4,5.65-1.27,9.35-2.07,9.35-2.07,0,0,32.17-13.59,37.15-21.12,3.1-4.69-5.78-31.35-14.66-51.2-5.39-12.02-10.77-21.54-13.51-22.19C148.11,5.86,124.7.07,119.87,0c-4.85-.08-14.8,6.2-13.74,19.82l-.09.02c-.97.29-8.7,2.7-11.26,4.56-1.47,1.09-3.64,4.59-5.04,8.59-1.21,3.43-1.85,7.2-1.01,10.12,1.39,4.84,8.52,8.63,11.81,10.14.9.42,1.5.67,1.64.72-.96-.05-20.83-1.41-27.27-1.99-1.65-.14-3.31-.34-4.95-.55-.05,0-.08,0-.11-.02-.05,0-.08,0-.09,0-.05-.01-.08,0-.08,0-4.81-.62-9.09-1.33-10.47-1.08-1.64.3-7.8-.04-13.37-.15-.77-.02-1.53-.02-2.27-.03-6.02-.04-18.9-.93-26.23-.56-7.31.36-15.51,3.57-16.29,5.03-.77,1.44-2.44,11.99,1.23,15.98,3.48,3.76,31.52,4.61,51.7,2.35,1.17-.12,2.31-.26,3.41-.4,0,0,4.51.17,10.97.46,0,0,.21.02.57.02.25.01.6.03,1.01.05.35.02.74.04,1.18.05.19,0,.38.02.58.03,16.23.72,40.67,1.91,42.49,2.76,2.75,1.28,4.2,4.74,2.34,6.67-1.85,1.93-38.57,12.49-44.31,13.24-3.24.42-7.36,1.79-11.27,3.24h-.02c-3.04,1.12-5.97,2.25-8.29,3.03-3.77,1.26-19.34,4.77-29.08,7.93-.03,0-.08.02-.11.02-.01.02-.03.02-.05.02h-.03s-.05.02-.05.02c-3.79,1.22-6.65,2.4-7.54,3.33-3.17,3.37-4.33,17.31,14.19,17.97,15.95.58,28.18-6.98,38.92-12.24Z"/>
          <path class="cls-5" d="M106.05,92.62l38.32-1.19,18.28-50.05-1.03-13.33c-5.39-12.02-10.77-21.54-13.51-22.19C148.11,5.86,124.7.07,119.87,0l3.27,6.6-7.21-.8,5.44,3.71s4.34,2.24,4.71,3.21c.37.96.92,15.8-7.08,17.52,0,0-10.27-6.66-12.87-10.42l-.09.02c-.97.29-8.7,2.7-11.26,4.56,0,0,10.24,4.82,15.25,6.53,4.99,1.71,3.44,21.87-1.36,25.02l-8.13-2.69-30.68-1.83s.06.03.11.02c2.84.49,25.95,4.52,28.52,6.28,2.72,1.88,2.11,13.06-1.55,14.77-2.82,1.32-18.3.91-25.22.67,16.23.72,40.67,1.91,42.49,2.76,2.75,1.28,4.2,4.74,2.34,6.67-1.85,1.93-38.57,12.49-44.31,13.24-3.24.42-7.36,1.79-11.27,3.24l45.08-6.46Z"/>
          <path class="cls-8" d="M68.93,119.17c1.73-.86,3.41-1.65,5.07-2.32,8.82-3.63,39.97-10.84,55.79-14.4l-.56-36.06s-31.98-14.62-28.69-13.12c.9.42,1.5.67,1.64.72-.96-.05-20.83-1.41-27.27-1.99-1.65-.14-3.31-.34-4.95-.55-.05,0-.08,0-.11-.02-.05,0-.08,0-.09,0-.05-.01-.08,0-.08,0-4.81-.62-9.09-1.33-10.47-1.08-1.64.3-7.8-.04-13.37-.15l-.24.21s11.84,1.71,14.11,5.29c2.26,3.57,3.79,13.12-5.53,17.17-.08.04-.14.07-.2.11,1.17-.12,2.31-.26,3.41-.4,0,0,4.51.17,10.97.46,0,0,.21.02.57.02.25.01.6.03,1.01.05.35.02.74.04,1.18.05.19,0,.38.02.58.03,16.23.72,40.67,1.91,42.49,2.76,2.75,1.28,4.2,4.74,2.34,6.67-1.85,1.93-38.57,12.49-44.31,13.24-3.24.42-7.36,1.79-11.27,3.24h-.02c-3.04,1.12-5.97,2.25-8.29,3.03-3.77,1.26-19.34,4.77-29.08,7.93,3.31-.63,39.89-7.74,43.6-6.31,3.27,1.26,5.42,9.93,1.74,15.44Z"/>
          <path class="cls-1" d="M176.72,107.16v-.02c3.44-4.05,18.65-33,25.47-36.79,4.42-2.46,31.42-1.78,50.1-.97h.02c5.35.23,10,.47,13.25.64V22.48c-8.56.96-62.64,7-63.95,6.38-1.41-.69-7.3-12-10.82-13.91-1.08-.59-2.64-1.26-4.47-1.9h-.02c-4.15-1.49-9.73-2.91-14.38-3.25-3.67-.27-10.44-1.43-15.84-2.4h-.03c-4.45-.83-7.94-1.54-7.94-1.54,4.99,6.47,9.26,39.79,9.26,39.79-3.75,4.2-8.28,12.88-12.15,20.96-.88,1.83-1.73,3.62-2.53,5.33-.01.05-.04.08-.05.13-3.11,6.75-5.41,12.02-5.78,12.09-.88.16-9.09.59-9.09.59,0,0,1.3-11.51.59-16.82-.71-5.31-10.66-21.01-14.63-21.21-3.06-.14-7.6.88-9.76,2.42-.07.05-.13.09-.16.11,0,0,0,.02-.01.02h-.02s0,.02,0,.02c-.55.42-.91.89-1.01,1.37-.45,2.31,2.47,12.02,2.8,24.1.33,12.09.42,19.72.83,22.47.42,2.75,4.47,7.8,5.5,8.11,1.01.31,17.28,1.55,24.61,3.17,4.86,1.07,13.47,4.51,19.78,6.43,3.19.98,5.8,1.58,7.01,1.28,3.66-.88,10.03-5.08,13.43-9.07Z"/>
          <path class="cls-8" d="M103.77,49.29v-.02s.01,0,0,0v.02Z"/>
          <path class="cls-8" d="M157.37,45.65c-3.75,4.2-8.28,12.88-12.15,20.96,6.99-12.89,18.49-22.34,18.49-22.34,6.11-17.18,16.62-26.85,22.6-31.23-4.15-1.49-9.73-2.91-14.38-3.25-3.67-.27-10.44-1.43-15.84-2.4h-.03c-4.45-.83-7.94-1.54-7.94-1.54,4.99,6.47,9.26,39.79,9.26,39.79Z"/>
          <path class="cls-8" d="M145.21,66.61c-.94,1.72-1.79,3.5-2.53,5.33.8-1.71,1.65-3.51,2.53-5.33Z"/>
          <path class="cls-8" d="M156.27,114.94c-2.87-11.54-16.31-29.93-16.31-29.93-.01-4.43,1.02-8.8,2.67-12.94-3.11,6.75-5.41,12.02-5.78,12.09-.88.16-9.09.59-9.09.59,0,0,1.3-11.51.59-16.82-.71-5.31-10.66-21.01-14.63-21.21-3.06-.14-7.6.88-9.76,2.42,1.08-.65,6.34-3.43,11.15,1.25,5.39,5.24,10.12,33.61,8.26,38.53-1.85,4.91-11.48,16.41-11.48,16.41,1.01.31,17.28,1.55,24.61,3.17,4.86,1.07,13.47,4.51,19.78,6.43Z"/>
          <polygon class="cls-5" points="127.76 84.76 126 94.07 130.64 84.65 127.76 84.76"/>
          <path class="cls-5" d="M127.76,84.76l9.09-.59s-.07-19.07,20.52-38.52c0,0-1.76-17.45-4.83-27.4l-8.1-5.7-21.3-5.95-7.21-.8,8.97,4.38s8.97,2.44,11.74,3.56c2.77,1.13,7.27,7.33,7.37,9.63.1,2.3-2.97,8.86-4.46,9.72-1.5.86-20.54-2.86-20.54-2.86,0,0-9.92-6.84-12.87-10.42,0,0,6.03,9.65,8.01,11.14,1.98,1.49,20,5.38,22.02,8.5,2.03,3.12.81,10.51-.59,12.63-1.4,2.12-12.45,4.65-12.45,4.65,0,0,4.77,8.49,5.23,11.19.46,2.7-.59,16.82-.59,16.82Z"/>
          <path class="cls-6" d="M102.76,52.17c-.15-1.51,6-3.06,7.61-.59,1.6,2.48,2.05,18.9-.99,23-3.03,4.11-4.95-5.79-6.62-22.42Z"/>
          <path class="cls-4" d="M110.66,52.2s1.79,4.15,1.56,12.2c-.24,8.05-3.05,13.51-4.47,13.96-1.42.44-2.44-8.27-2.44-8.27,0,0,1.32,5.47,3.09,5.13,1.77-.34,5.03-13.81,2.26-23.02Z"/>
          <path class="cls-7" d="M102.9,54.05s4.11-1.36,8.07-.69c0,0-.18-1.14-.78-2.01-.6-.87-5.56-1.97-7.42.83l.14,1.87Z"/>
          <path class="cls-7" d="M105.3,70.09s.87-1.51,2-1.3c1.13.21,2.1,5.16,2.1,5.16,0,0-.4,1.49-1.56,1.18-1.16-.3-2.55-5.05-2.55-5.05Z"/>
          <path class="cls-6" d="M138.94,32.33s3.63-.77,4.6-8.29c.04-.33-.3-.65-.91-.94-1.88-.91-6.18-1.44-8.92-.68l-.31.1c-.15.04-.31.09-.44.14-.03.02-.06.02-.08.04-2.03.94-2.64,4.32-.78,6.8,1.02,1.37,2.78,2.46,5.46,2.74.02,0,.03,0,.05.01.41.05.85.08,1.33.07Z"/>
          <path class="cls-6" d="M134.09,52.61c.34-.14.59-.27.75-.4,1.17-.95,3.72-5.94.99-10.4-.07-.12-.16-.22-.26-.33-.46-.45-1.24-.74-2.18-.9h-.05c-3.06-.5-8,.37-10.95,2.1-.95.58-1.7,1.23-2.1,1.95-1.72,3.13-.19,6.47,2.21,8.03.03.03.07.04.1.06.41.27.85.48,1.31.64.11.04.23.08.35.1,2.84.71,7.76-.03,9.82-.85Z"/>
          <path class="cls-5" d="M122.51,52.67l.86.39c-2.07-1.4-4.78-6.19-1.24-9.21,3.76-3.2,10.18-3.28,11.22-3.27-4.04-.66-11.41,1.07-13.05,4.05-1.72,3.13-.19,6.47,2.21,8.03Z"/>
          <path class="cls-5" d="M124.27,53.46l-.9-.4c.18.14.36.24.54.3.11.04.23.08.35.1Z"/>
          <path class="cls-5" d="M137.57,32.24c-1.2-.3-6.59-1.85-5.32-6.59,1.4-5.23,10.08-2.65,10.38-2.56-2.06-.99-7.04-1.56-9.67-.43-3.23,1.38-3.02,8.8,4.6,9.58Z"/>
          <path class="cls-7" d="M138.94,32.33s3.63-.77,4.6-8.29c.04-.33-.3-.65-.91-.94,0,0-.15,5.76-3.69,9.23Z"/>
          <path class="cls-7" d="M134.09,52.61c.34-.14.59-.27.75-.4,1.17-.95,3.72-5.94.99-10.4-.07-.12-.16-.22-.26-.33.24,1.65.78,7.06-1.48,11.13Z"/>
          <path class="cls-10" d="M123.13,56.75s6.11,8.44,6.84,11.46c.73,3.02-1.3,15.39,6.89,15.95l-9.09.59s1.2-12.59.59-16.82c-.6-4.23-5.23-11.19-5.23-11.19Z"/>
          <path class="cls-10" d="M135.34,52.38s1.42-.47,3.82-9.19c2.41-8.72,5.87-17.86,5.79-20.27-.09-2.41-7.39-8.66-7.39-8.66,0,0,6.83,7.13,6.46,9.12s-2.9,8.49-4.46,9.72c-1.57,1.24-14.93-1.82-14.93-1.82,0,0,7.31,3.4,10.31,7.11,2.99,3.72,2.8,11.57.41,13.98Z"/>
          <path class="cls-10" d="M113.72,46.73s4.72,1.01,11.49,9.5l.36,4.71s-4.3-9.03-11.85-14.21Z"/>
          <path class="cls-3" d="M252.23,69.37c-2.4-.59-53.6-12.5-59.73-3.94-6.17,8.65-15.57,40.7-15.76,41.7,3.43-4.05,18.63-33,25.46-36.79,4.42-2.46,31.36-1.77,50.03-.98Z"/>
          <path class="cls-3" d="M202.19,70.35c4.42-2.46,31.42-1.78,50.1-.97h.02c5.35.23,10,.47,13.25.64V22.48c-8.56.96-62.64,7-63.95,6.38-1.41-.69-7.3-12-10.82-13.91,0,0,2.96,9.5,2.15,27.26-.82,17.76-16.2,64.94-16.2,64.94,3.43-4.05,18.63-33,25.46-36.79Z"/>
          <path class="cls-5" d="M176.74,107.14c3.43-4.05,18.63-33,25.46-36.79l-9.7-4.91c-6.17,8.65-15.57,40.7-15.76,41.7Z"/>
          <path class="cls-11" d="M180.35,36.63c5.84-1.35,4.95,40.29-6.2,58.66-7.76,12.79-14.1,13.78-17.19,13.37s-14.32-16.05-13.64-28.52c.68-12.47,20.31-39.65,37.03-43.52Z"/>
          <path class="cls-13" d="M169.95,40.82s-21.08,7.88-33.1,43.35c0,0,3.73-35.43,33.1-43.35Z"/>
          <path class="cls-2" d="M93.73,26.86s-.68,11.9-3.63,16.7c0,0-2.9-8.79,3.63-16.7Z"/>
          <path class="cls-2" d="M111.64,6.14s-.04,9.25-5.5,13.69c0,0-2.2-9.23,5.5-13.69Z"/>
          <path class="cls-2" d="M1.99,55.14s2.5,9.45.29,15.47c0,0-3.83-8.66-.29-15.47Z"/>
          <path class="cls-2" d="M15.81,113.43s4.58,11.07,9.74,16.23c0,0-6.24-.85-8.87-4.98-2.63-4.13-.87-11.25-.87-11.25Z"/>
          <path class="cls-14" d="M126.22,13.8s1.69,4.61.81,10.5c-.89,5.89-7.21,5.71-7.21,5.71,0,0,6.79-3.26,6.4-16.21Z"/>
          <path class="cls-14" d="M112.18,33.65s3.09,8.42,3.03,13.66c0,0-1.32-.5-2.64-.49,0,0,.76-2.91-.39-13.17Z"/>
          <path class="cls-15" d="M128.59,12.93l11.43,5.27s-3.03-3.66-4-3.82c-.97-.16-7.43-1.45-7.43-1.45Z"/>
          <path class="cls-9" d="M178.2,92.15s-1.43,10.83-3.3,13.06-8.52,9.81-12.17,10.17c-3.65.36-22.57-6.45-22.57-6.45,0,0,17.18,4.77,22.3,3.04,5.13-1.73,12.85-9.99,15.73-19.82Z"/>
          <path class="cls-9" d="M261.73,29.28c1.4.86,2.7,2,3.83,3.16v-4.71c-.67-1.26-1.34-2.28-1.93-2.77-2.41-2.01-58.96,5.88-58.96,5.88,0,0,52.53-4.34,57.06-1.56Z"/>
          <path class="cls-9" d="M154.58,9.46s23.24,1.45,30.72,4.33c7.48,2.88,12.91,13.78,12.91,13.78,0,0-5.57-7.86-15.89-11.64-10.32-3.77-27.75-6.48-27.75-6.48Z"/>
          <path class="cls-9" d="M4.11,54.28s4.75-2.55,14.95-2.94,40.75.56,40.75.56c0,0-52.65,2.04-55.71,2.38Z"/>
          <path class="cls-9" d="M28.86,129.41s27.31-4.98,40.49-13.04c0,0-11.17,8.42-23.32,11.72-12.15,3.3-17.17,1.32-17.17,1.32Z"/>
          <path class="cls-9" d="M265.56,68.22v-.22c-8.85-1.39-35.35-4.87-58.11-1.04,0,0,41.45-.06,58.11,1.26Z"/>
          <path class="cls-9" d="M105.97,78.84s2.19,8.39,1.93,12.77c-.26,4.38-1.52,5.63-1.52,5.63l-.42-18.4Z"/>
          <path class="cls-6" d="M111.89,105.34s.76-4.03-.59-6.9c-1.36-2.87-4.9-1.21-4.9-1.21,0,0,1.31,3.87,5.5,8.11Z"/>
          <path class="cls-5" d="M113.72,46.73l-2.2,1.18s-6.55.13-8.77,2.74c0,0,1.05-3.86,10.97-3.93Z"/>
        </g>
      </g>
    </g>
  </g>
</svg>