<?xml version="1.0" encoding="UTF-8"?>
<svg xmlns="http://www.w3.org/2000/svg" xmlns:xlink="http://www.w3.org/1999/xlink" viewBox="0 0 205.57 120.16">
  <defs>
    <style>
      .cls-1 {
        fill: url(#_Áåçûìÿííûé_ãðàäèåíò_151);
      }

      .cls-1, .cls-2, .cls-3, .cls-4, .cls-5, .cls-6, .cls-7, .cls-8, .cls-9, .cls-10, .cls-11, .cls-12, .cls-13, .cls-14 {
        stroke-width: 0px;
      }

      .cls-2 {
        fill: #f5ee8f;
      }

      .cls-2, .cls-7, .cls-8, .cls-10, .cls-14 {
        mix-blend-mode: soft-light;
        opacity: .97;
      }

      .cls-3 {
        fill: #f3bac0;
        opacity: .6;
      }

      .cls-3, .cls-5, .cls-9, .cls-13 {
        mix-blend-mode: multiply;
      }

      .cls-15 {
        isolation: isolate;
      }

      .cls-4 {
        fill: #e86c7c;
      }

      .cls-5 {
        opacity: .5;
      }

      .cls-5, .cls-9, .cls-13 {
        fill: #d87290;
      }

      .cls-6 {
        fill: url(#_Áåçûìÿííûé_ãðàäèåíò_54);
        mix-blend-mode: screen;
      }

      .cls-7 {
        fill: #f5af8f;
      }

      .cls-8 {
        fill: #f5d3d2;
      }

      .cls-9 {
        opacity: .31;
      }

      .cls-10 {
        fill: #f5ffff;
      }

      .cls-11 {
        fill: #ab3d52;
      }

      .cls-12 {
        fill: url(#_Áåçûìÿííûé_ãðàäèåíò_152);
      }

      .cls-13 {
        opacity: .3;
      }

      .cls-14 {
        fill: #f5a995;
      }
    </style>
    <linearGradient id="_Áåçûìÿííûé_ãðàäèåíò_152" data-name="Áåçûìÿííûé ãðàäèåíò 152" x1="2986.92" y1="-1703.98" x2="2986.92" y2="-1776.94" gradientTransform="translate(1818.73 -2889.16) rotate(90.81) scale(1 -1)" gradientUnits="userSpaceOnUse">
      <stop offset="0" stop-color="#ff8777"/>
      <stop offset=".98" stop-color="#ffb880"/>
    </linearGradient>
    <linearGradient id="_Áåçûìÿííûé_ãðàäèåíò_151" data-name="Áåçûìÿííûé ãðàäèåíò 151" x1="2972.47" y1="-1570.91" x2="2972.47" y2="-1766.51" gradientTransform="translate(1818.73 -2889.16) rotate(90.81) scale(1 -1)" gradientUnits="userSpaceOnUse">
      <stop offset=".02" stop-color="#ffb880"/>
      <stop offset="1" stop-color="#ff8777"/>
    </linearGradient>
    <linearGradient id="_Áåçûìÿííûé_ãðàäèåíò_54" data-name="Áåçûìÿííûé ãðàäèåíò 54" x1="2921.24" y1="-1697.28" x2="3010.44" y2="-1697.28" gradientTransform="translate(1818.73 -2889.16) rotate(90.81) scale(1 -1)" gradientUnits="userSpaceOnUse">
      <stop offset="0" stop-color="#ec4400"/>
      <stop offset=".11" stop-color="#db3f00"/>
      <stop offset=".31" stop-color="#b03200"/>
      <stop offset=".6" stop-color="#6a1e00"/>
      <stop offset=".96" stop-color="#0b0300"/>
      <stop offset="1" stop-color="#000"/>
    </linearGradient>
  </defs>
  <g class="cls-15">
    <g id="Layer_2" data-name="Layer 2">
      <g id="Layer_1-2" data-name="Layer 1">
        <g>
          <path class="cls-12" d="M51.64,25.77s-29.77.66-35.4,1.57c-5.63.91-14.69,7.67-15.93,11.3-1.23,3.63,1.23,13.71,4.97,17.61,1.79,1.87,4.89,2.43,4.89,2.43,0,0-2.6,2.62-3.57,8.52-.97,5.9,3.33,15.02,9.04,15.8,0,0,.77,14.79,10.65,20.25,0,0,2.55.73,6.99.1,0,0,4.52,14.45,13.07,16.35,8.55,1.89,21.62-2.65,21.62-2.65,0,0,7.33-16.65,2.87-49.42-4.46-32.78-19.21-41.85-19.21-41.85Z"/>
          <path class="cls-1" d="M109.88,108.38c5.37-3.28,11.39-10.87,14.55-11.82,3.16-.94,56.15,1.2,76.28-.49,0,0,10.47-15.22.68-48.07,0,0-66.43,7.87-72.91,6.01,0,0-.03,0-.09-.03-6.52-2.06-22.93-26.41-27.24-35.82,0-.02-.02-.02-.02-.03-.02-.02-.02-.03-.02-.03-4.3-9.42-11.95-15.05-15.49-15.54-2.12-.3-9.33,0-16.42.25-4.81.17-9.57.28-12.64.15C48.96,2.63,38.91-.32,36.35.03c-2.58.35-6.55,3.45-7.77,5.51-.99,1.67-3.75,12.57-6.68,21.29-.65,1.99-1.32,3.85-1.98,5.48-3.57,8.83-9.52,18.57-9.65,20.25-.04.56.6,1.47,1.67,2.41.02.02.05.05.08.08,1.09.98,2.61,1.99,4.24,2.73.02,0,.05.02.06.02,1.52.68,3.14,1.11,4.62,1.03,0,0,.2-.03.58-.07,5.22-.88,18.69-10.22,21.66-25.92l-1.14-6.82-.04-.3s8.19-.77,9.66.04c.03.02.06.03.08.06,1.58,1.58,6.8,24.39,19.12,41.79,0,0,1.48,30.68-1.27,44.41,0,.05,0,.08-.02.11-.23,1.15-.48,2.18-.79,3.06-.03.11-.08.2-.11.31-.18.54-.39,1.02-.63,1.43-.02.05-.03.08-.05.11,0,0,31.35-4.62,40.24-7.91.71-.26,1.27-.51,1.66-.76Z"/>
          <path class="cls-9" d="M48.82,120.13c.62.02,1.26.03,1.87.03.41,0,.78,0,1.17-.01.81-.02,1.62-.07,2.4-.14.28-.03.56-.05.83-.08.87-.08,1.7-.19,2.52-.32,4.89-.73,8.73-1.98,9.96-2.42.27-.07.41-.13.41-.13.02-.03.03-.06.05-.11.22-.43.43-.91.63-1.43.03-.11.08-.2.11-.31,4.83-12.71,5.08-43.36,5.08-43.36l8.32,7.08s-7.56-12.25-14.28-25.76c-3.02-6.05-5.85-12.35-7.76-17.91-1.86-5.42-2.84-10.15-2.26-13.29,2.49-13.58,11.35-19.15,11.35-19.15-4.81.17-9.57.28-12.64.15C48.96,2.63,38.91-.32,36.35.03c3.79,3.11,3.43,25.25,2.5,28.02-4.34,12.94-21.02,26.51-24.17,26.56-2.96.05-4.25-1.79-4.4-2.03.44.93,1.01,1.71,1.65,2.39.02.02.05.05.08.08,1.26,1.3,2.79,2.16,4.24,2.73.02,0,.05.02.06.02,2.47.96,4.62,1.03,4.62,1.03,0,0,.2-.03.58-.07.3-.03.72-.07,1.22-.11,5.92-.52,24.44-1.99,26.84.58,2.84,3.07,3.17,21.92.19,23.06-2.96,1.14-34.1.7-34.1.7,9.42,1.24,34.31,1,35.71,1.32,1.4.32,3.41,14.39.94,15.9-2.3,1.43-16.98,2.93-18.81,3.12,9.04-.31,22.83-1.67,22.83-1.67,1.88,2.38,1.85,12.68.89,13.9-.87,1.13-7.23,4.05-8.25,4.52-.09.05-.14.06-.14.06Z"/>
          <path class="cls-7" d="M19.91,32.31s1.1-.53,2.08.03c.98.56.94,11.32-1.91,16.23-2.84,4.91-9.46,2.87-9.46,2.87l9.29-19.13Z"/>
          <path class="cls-5" d="M40.49,16.89l1.55,9.14,2.23-.06s-.92-2.04-3.78-9.08Z"/>
          <path class="cls-13" d="M66.25,114.45l1.73,2.6s7.05-24.07,5.87-45.21c0,0-15.99-38.31-22.2-46.07l-9.66-.04s.99,5.74,1.18,7.12c.18,1.38-1.02,5.15-1.02,5.15,0,0,5.35,2.4,6.29,5.57.39,1.3.41,3.27.25,5.2-.23,2.77-.83,5.5-1.3,6.11-.8,1.08-11.12,2.12-11.12,2.12,0,0,21.55-.49,23.51.33,1.97.81,9.3,18.65,4.32,22.03,0,0,2.92,10.77,1.44,14.2-1.48,3.43-5.06,4.67-5.06,4.67,0,0,5.61.56,6.54,4.91.92,4.35-.52,8.17-2.21,9.83-.16.15-.36.32-.62.51-2.33,1.73-8.31,4.81-9.12,5.22l7.86-2.98,3.34-1.26Z"/>
          <path class="cls-13" d="M201.39,48s-66.43,7.87-72.91,6.01c-6.46-1.87-23.04-26.44-27.35-35.88.37,1.35,12.22,44.43,15.66,47.38,3.51,3.01,62.87.1,84.6-17.52Z"/>
          <path class="cls-3" d="M124.43,96.56c3.16-.94,56.15,1.2,76.28-.49,0,0,10.47-15.22.68-48.07,0,0-66.43,7.87-72.91,6.01,0,0-.03,0-.09-.03-.05-.01-.1-.04-.15-.06-1.49-.63-9.88-5.31-27.1-35.76.34,1.14,11.69,38.15,14.63,57.39,2.97,19.56-7.56,33.59-7.56,33.59.71-.26,1.27-.51,1.66-.76,5.37-3.28,11.39-10.87,14.55-11.82Z"/>
          <path class="cls-4" d="M19.91,32.31s2.32-.19,2.64,5.16c.38,6.51-2.88,11.72-2.88,11.72,0,0,4.28-5.21,3.16-14.5s-2.92-2.38-2.92-2.38Z"/>
          <path class="cls-8" d="M11.77,49.08s2.72,2.07,7.9.11c0,0-2.08,4.11-9.05,2.24l1.14-2.36Z"/>
          <path class="cls-8" d="M18.46,35.3s1.96.28,3.31-1.46c0,0-.75-1.46-1.86-1.54l-1.45,2.99Z"/>
          <path class="cls-5" d="M48.82,120.13c.62.02,1.26.03,1.87.03.41,0,.78,0,1.17-.01.81-.02,1.62-.07,2.4-.14.28-.03.56-.05.83-.08.87-.08,1.7-.19,2.52-.32,4.89-.73,8.73-1.98,9.96-2.42.27-.07.41-.13.41-.13.02-.03.03-.06.05-.11.22-.43.43-.91.63-1.43.03-.11.08-.2.11-.31,4.83-12.71,5.08-43.36,5.08-43.36l-22.2-46.07-9.66-.04s1.17,5.7,1.02,8.42c-.15,2.73-4.17,15.95-20.29,24.5,5.92-.52,24.44-1.99,26.84.58,2.84,3.07,3.17,21.92.19,23.06-2.96,1.14-34.1.7-34.1.7,9.42,1.24,34.31,1,35.71,1.32,1.4.32,3.41,14.39.94,15.9-2.3,1.43-16.98,2.93-18.81,3.12,9.04-.31,22.83-1.67,22.83-1.67,1.88,2.38,1.85,12.68.89,13.9-.87,1.13-7.23,4.05-8.25,4.52-.09.05-.14.06-.14.06Z"/>
          <polygon class="cls-5" points="19.49 33.18 9.67 32.16 16.39 31.37 16.81 28.82 21.57 27.8 19.49 33.18"/>
          <path class="cls-5" d="M65.64,77.05s-9.38,3.93-15.89,5.24c-6.52,1.31-19.01,1.58-19.01,1.58,0,0,17.3.61,20.62.44,3.32-.18,12.72-4.97,12.72-4.97,0,0,.88-1.12,1.56-2.29Z"/>
          <path class="cls-5" d="M60.46,98.21s-4.8,1.52-9.42,2.49c-4.62.97-17.75,2.64-17.75,2.64,0,0,19.77-1.49,22.25-2.1,2.48-.61,4.92-3.03,4.92-3.03Z"/>
          <path class="cls-5" d="M42.14,37.99s-4.78,13.56-19.42,20.66c0,0,17.7-6.34,23.34-18.23l-3.93-2.42Z"/>
          <path class="cls-5" d="M22.72,58.65s-6.01-.95-7.45-4.17c0,0-2.36.6-4.99-1.91,0,0,3.09,6.74,12.44,6.07Z"/>
          <path class="cls-7" d="M29.45,4.38s1.65,4.4,5.52,4.55c3.87.15,1.38-8.9,1.38-8.9,0,0-5.31,1.41-6.9,4.35Z"/>
          <path class="cls-2" d="M.32,38.63s3.18,5.24,4.78,10.35c1.6,5.11.19,7.26.19,7.26,0,0-6.29-7.87-4.97-17.61Z"/>
          <path class="cls-2" d="M15.73,83.88s3.17,2.95,6.51,8.91c3.34,5.96,3.7,10.24,3.7,10.24,0,0-7.06-1.87-10.21-19.15Z"/>
          <path class="cls-2" d="M6.61,67.2s2.56,4.99,4.35,9.08c1.79,4.09,1.73,5.53,1.73,5.53,0,0-6.88-3.61-6.08-14.61Z"/>
          <path class="cls-2" d="M33.29,103.35s2.03,3.89,5.39,9.02c2.21,3.36,6.78,7.07,6.78,7.07,0,0-7.47-1.54-12.17-16.09Z"/>
          <path class="cls-6" d="M63.83,8.11s11.76-3.34,22.56,5.93c10.8,9.27,16.26,78.47,13.62,82.86S60.95,49,58.66,30.37c-2.29-18.63,5.17-22.26,5.17-22.26Z"/>
          <path class="cls-5" d="M128.24,53.92s-1.37,9.17-11.45,11.59l-15.64-47.35s19.12,31.77,27.1,35.76Z"/>
          <path class="cls-11" d="M51.64,25.77s-5.2,4.74-6.26,6.9c-1.07,2.16-1.2,6.59-1.2,6.59l-2.05-1.26s1.1-3.28,1.03-5.15c-.07-1.88-1.18-7.12-1.18-7.12,0,0,8.09-.71,9.66.04Z"/>
          <path class="cls-11" d="M64.79,112.96s4.06-1.49,4.07-16.23c.02-14.76-4.51-35.14-6.43-38.07-1.6-2.46-10.39-7.71-13.74-9.91-.23,2.77-.83,5.5-1.3,6.11-.8,1.08-11.12,2.12-11.12,2.12,0,0,21.55-.49,23.51.33,1.97.81,9.3,18.65,4.32,22.03,0,0,2.92,10.77,1.44,14.2-1.48,3.43-5.06,4.67-5.06,4.67,0,0,5.61.56,6.54,4.91.92,4.35-.52,8.17-2.21,9.83Z"/>
          <path class="cls-11" d="M55.05,118.69l7.86-2.98,1.26-2.24c-2.33,1.73-8.31,4.81-9.12,5.22Z"/>
          <path class="cls-10" d="M103.76,109.07s-18.59,4.7-33.65,7.16c0,0,16.36-7.26,33.65-7.16Z"/>
          <path class="cls-10" d="M197.72,90.91s-39.75,3.52-61.44,3.85c0,0,41.74,2.56,61.39-.31l.05-3.55Z"/>
          <path class="cls-10" d="M87.06,5.21s8.78,2.66,12.2,11.78c3.42,9.11,8.88,30.77,8.88,30.77,0,0-8.54-33.77-21.08-42.55Z"/>
          <path class="cls-10" d="M29.09,101.31s13.6.09,21.51-1.76c0,0-8.04,4.12-21.51,1.76Z"/>
          <path class="cls-10" d="M44.98,116.72s7.33.49,11.95-2c0,0-5.64,5.06-11.95,2Z"/>
          <path class="cls-10" d="M15.69,80.11s16.74,2.48,31.48.45c0,0-16.48,5.06-31.48-.45Z"/>
          <path class="cls-10" d="M29.42,6.41s-4.04,7.48-4.9,15.82c0,0,5.01-6.51,4.9-15.82Z"/>
          <path class="cls-10" d="M40.04,1.46s5.6,3.26,11.9,3.86c6.29.61,19.85-1.56,19.85-1.56,0,0-23.14.4-31.74-2.3Z"/>
          <path class="cls-10" d="M199.8,49.21s-44.69,11.08-67.52,8.46c0,0,26.47-4.26,67.52-8.46Z"/>
          <path class="cls-14" d="M55.91,58.29c2.6.59,8.97,8.69,7.02,14.64,0,0-3.01-7.43-4.37-10.7-1.36-3.27-2.65-3.94-2.65-3.94Z"/>
          <path class="cls-14" d="M63.13,81.96s3.7,12.3-2.65,15.17c0,0,4.11-8.58,2.65-15.17Z"/>
          <path class="cls-14" d="M66.64,107.15s-3.22,4.66-3.4,6.31c0,0,3.4-1.73,3.4-6.31Z"/>
          <path class="cls-13" d="M50.15,60.17s3.18,4.6,3.37,12.06c.19,7.46-3.77,10.06-3.77,10.06,0,0,4.31-10.27.4-22.12Z"/>
          <path class="cls-13" d="M52.1,85.55s2.97,2.07,3.8,6.37c.83,4.3-3.07,7.67-3.07,7.67,0,0,2.08-6.71-.73-14.03Z"/>
          <path class="cls-13" d="M57.1,102.33s2.3,2.12,2.63,5.38c.33,3.26-2.21,7.01-2.21,7.01,0,0,1.4-3.97-.42-12.39Z"/>
        </g>
      </g>
    </g>
  </g>
</svg>