<?xml version="1.0" encoding="UTF-8"?>
<svg xmlns="http://www.w3.org/2000/svg" xmlns:xlink="http://www.w3.org/1999/xlink" viewBox="0 0 263.4 118.28">
  <defs>
    <style>
      .cls-1 {
        fill: url(#_Áåçûìÿííûé_ãðàäèåíò_151);
      }

      .cls-1, .cls-2, .cls-3, .cls-4, .cls-5, .cls-6, .cls-7, .cls-8, .cls-9, .cls-10, .cls-11, .cls-12, .cls-13, .cls-14, .cls-15, .cls-16, .cls-17, .cls-18, .cls-19 {
        stroke-width: 0px;
      }

      .cls-2 {
        fill: #f5ee8f;
      }

      .cls-2, .cls-10 {
        mix-blend-mode: soft-light;
        opacity: .97;
      }

      .cls-3 {
        fill: url(#_Áåçûìÿííûé_ãðàäèåíò_59-2);
      }

      .cls-3, .cls-12 {
        mix-blend-mode: screen;
      }

      .cls-4 {
        fill: url(#_Áåçûìÿííûé_ãðàäèåíò_152-3);
      }

      .cls-5, .cls-6, .cls-7, .cls-9, .cls-14, .cls-15, .cls-17, .cls-18, .cls-19 {
        mix-blend-mode: multiply;
      }

      .cls-5, .cls-6, .cls-18 {
        fill: #f3bac0;
      }

      .cls-5, .cls-8, .cls-14, .cls-15, .cls-17, .cls-18, .cls-19 {
        fill-rule: evenodd;
      }

      .cls-5, .cls-14 {
        opacity: .2;
      }

      .cls-6, .cls-17, .cls-18, .cls-19 {
        opacity: .6;
      }

      .cls-20 {
        isolation: isolate;
      }

      .cls-7 {
        opacity: .5;
      }

      .cls-7, .cls-9, .cls-14, .cls-15 {
        fill: #d87290;
      }

      .cls-8 {
        fill: #b24d61;
      }

      .cls-9 {
        opacity: .31;
      }

      .cls-10 {
        fill: #f5ffff;
      }

      .cls-11 {
        fill: url(#_Áåçûìÿííûé_ãðàäèåíò_152-4);
      }

      .cls-12 {
        fill: url(#_Áåçûìÿííûé_ãðàäèåíò_59);
      }

      .cls-13 {
        fill: url(#_Áåçûìÿííûé_ãðàäèåíò_152);
      }

      .cls-15 {
        opacity: .3;
      }

      .cls-16 {
        fill: url(#_Áåçûìÿííûé_ãðàäèåíò_152-2);
      }

      .cls-17 {
        fill: url(#_Áåçûìÿííûé_ãðàäèåíò_409);
      }

      .cls-19 {
        fill: url(#_Áåçûìÿííûé_ãðàäèåíò_55);
      }
    </style>
    <linearGradient id="_Áåçûìÿííûé_ãðàäèåíò_151" data-name="Áåçûìÿííûé ãðàäèåíò 151" x1="5444.31" y1="-2017.97" x2="5444.31" y2="-2349.65" gradientTransform="translate(-1856.88 -5476.39) rotate(92.42)" gradientUnits="userSpaceOnUse">
      <stop offset=".02" stop-color="#ffb880"/>
      <stop offset="1" stop-color="#ff8777"/>
    </linearGradient>
    <linearGradient id="_Áåçûìÿííûé_ãðàäèåíò_152" data-name="Áåçûìÿííûé ãðàäèåíò 152" x1="5453.8" y1="-2195.88" x2="5503.2" y2="-2245.27" gradientTransform="translate(-1856.88 -5476.39) rotate(92.42)" gradientUnits="userSpaceOnUse">
      <stop offset="0" stop-color="#ff8777"/>
      <stop offset=".98" stop-color="#ffb880"/>
    </linearGradient>
    <linearGradient id="_Áåçûìÿííûé_ãðàäèåíò_152-2" data-name="Áåçûìÿííûé ãðàäèåíò 152" x1="5393.99" y1="-2239.5" x2="5393.99" y2="-2309.04" xlink:href="#_Áåçûìÿííûé_ãðàäèåíò_152"/>
    <linearGradient id="_Áåçûìÿííûé_ãðàäèåíò_152-3" data-name="Áåçûìÿííûé ãðàäèåíò 152" x1="5427.07" y1="-2249.77" x2="5427.07" y2="-2351.66" xlink:href="#_Áåçûìÿííûé_ãðàäèåíò_152"/>
    <linearGradient id="_Áåçûìÿííûé_ãðàäèåíò_152-4" data-name="Áåçûìÿííûé ãðàäèåíò 152" x1="5457.28" y1="-2247.06" x2="5457.28" y2="-2335.26" xlink:href="#_Áåçûìÿííûé_ãðàäèåíò_152"/>
    <linearGradient id="_Áåçûìÿííûé_ãðàäèåíò_55" data-name="Áåçûìÿííûé ãðàäèåíò 55" x1="5466.42" y1="-2301.08" x2="5466.42" y2="-2302.14" gradientTransform="translate(-1856.88 -5476.39) rotate(92.42)" gradientUnits="userSpaceOnUse">
      <stop offset="0" stop-color="#b060f4"/>
      <stop offset="1" stop-color="#ffeadb"/>
    </linearGradient>
    <linearGradient id="_Áåçûìÿííûé_ãðàäèåíò_409" data-name="Áåçûìÿííûé ãðàäèåíò 409" x1="-4090.37" y1="-2315.67" x2="-4090.37" y2="-2316.49" gradientTransform="translate(-1912.94 -4159.98) rotate(-87.58) scale(1 -1)" gradientUnits="userSpaceOnUse">
      <stop offset="0" stop-color="#ffeadb"/>
      <stop offset=".99" stop-color="#b060f4"/>
    </linearGradient>
    <linearGradient id="_Áåçûìÿííûé_ãðàäèåíò_59" data-name="Áåçûìÿííûé ãðàäèåíò 59" x1="1402.26" y1="2740.76" x2="1455.63" y2="2740.76" gradientTransform="translate(3018.83 -973.69) rotate(97.89)" gradientUnits="userSpaceOnUse">
      <stop offset="0" stop-color="#000"/>
      <stop offset=".04" stop-color="#0b0300"/>
      <stop offset=".4" stop-color="#6a1e00"/>
      <stop offset=".69" stop-color="#b03200"/>
      <stop offset=".89" stop-color="#db3f00"/>
      <stop offset="1" stop-color="#ec4400"/>
    </linearGradient>
    <linearGradient id="_Áåçûìÿííûé_ãðàäèåíò_59-2" data-name="Áåçûìÿííûé ãðàäèåíò 59" x1="-27.12" y1="4950.31" x2="22.72" y2="4950.31" gradientTransform="translate(-2180.91 -292.3) rotate(-82.11) scale(1 .48)" xlink:href="#_Áåçûìÿííûé_ãðàäèåíò_59"/>
  </defs>
  <g class="cls-20">
    <g id="Layer_2" data-name="Layer 2">
      <g id="Layer_1-2" data-name="Layer 1">
        <g>
          <path class="cls-1" d="M153.17,2.79s-8.48-.25-19.15-.15c-.34.01-.7,0-1.09,0-14.24.14-31.95.86-39.03,3.43l-14.37,17.5S18.49,30.7,2.39,31.88c-.78.06-1.59.12-2.39.18v41.42c2.25-.34,50.69-6.92,51.57-7.06.05,0,.1-.02.15-.03.62-.1,1.25-.2,1.86-.3.67-.11,1.35-.21,2.01-.31.44-.07.86-.14,1.29-.19.22-.04.43-.06.64-.09,1.07-.16,2.11-.3,3.11-.43.55-.07,1.09-.14,1.61-.2.61-.07,1.2-.14,1.76-.2.36-.03.7-.07,1.04-.1.54-.05,1.07-.09,1.56-.13.4-.03.79-.05,1.15-.06.19-.01.38-.02.56-.02.18,0,.36-.01.53-.01.17,0,.34,0,.5,0,2.52,0,5.06.19,7.51.68,0,0,.03.1.08.29.01.04.03.1.05.15.24.85.84,2.91,1.72,5.63.14.4.28.82.42,1.25.03.11.07.21.11.32.07.22.15.44.22.66.17.47.34.96.51,1.46.11.33.23.66.35.99.04.12.09.24.13.36.13.37.27.74.41,1.11.28.75.57,1.51.87,2.28.1.25.2.51.31.77.09.2.17.4.25.6.08.21.17.42.26.64.09.21.18.42.27.64.17.42.36.84.54,1.26.09.22.19.44.29.66.09.21.19.43.28.64.38.85.78,1.7,1.19,2.53.1.21.2.42.31.62.1.21.2.41.31.62.1.2.21.41.31.61.21.4.43.81.64,1.2,0,0,0,0,0,.01.2.35.39.7.59,1.04.25.43.5.84.74,1.25.23.37.46.73.69,1.09.47.71.94,1.39,1.42,2.02.27.37.55.72.84,1.05.15.18.3.36.45.53.61.69,1.22,1.3,1.86,1.82.16.13.31.26.48.38.16.12.31.24.48.35,0,0,0,.01.01.01.15.11.31.21.46.3.16.1.31.19.47.27,0,0,.02.01.03.01.16.09.31.16.47.24,10.4,4.7,36.65,3.96,46.32,4.85,4.25.43,11.7,3.23,18.83,6.18l.02.03c9.01,3.77,16.45,6.68,17.4,6.53,1.68-.26,3.77-7.51,2.26-14.77-1.51-7.23-16.39-15.14-19.57-15.61-3.16-.49-17.62,4.76-17.62,4.76l-9.46-2.31-.74-7.91,8.66.07c4.12.04,9.48.05,15.59.08h.02c15.76.04,36.55.04,54.05-.34.19-.02.36-.01.51,0,.37,0,.56,0,.56,0,13.52-.28,24.99-.72,30.43-1.48,2.05.09,3.96-11.1.03-12.97-2.68-1.27-20.06-4.29-25.93-5.39-4.77-.88-15.89,1.22-19.95,2.03-.95.21-1.51.32-1.51.32l-34.66-1.82.13-3.03s24.29-1.22,49.87-3.01h.02c18.2-1.25,35.96-.61,47.24-2.26,3.8-.64,4.38-9.52,1.56-12.5,0,0-6.08-3.16-9.69-3.64,1.15-2.24,1.34-9.61-3.49-10.9,0,0-7.11-2.32-18.01-3.19-.07,0-.15-.03-.22,0-.1-.03-.19-.04-.29-.04h-.02c-2.9-.2-6.02-.31-9.19-.2t-.05,0c-4.42.17-8.98.77-13.4,2.01l-42.82-1.98h-.14s.45-7.32.45-7.32c0,0,23.5.06,41.68.1v-.02c5.78.02,11.01.02,14.8.02,2.53-.07.71-14.25-3.41-15.72-1.87-.67-11.28-1.16-18.18-1.25-6.92-.1-13.67,2.85-13.67,2.85l-30.91-.07Z"/>
          <path class="cls-13" d="M160.84,111.75l-.02-.03c-7.13-2.95-14.58-5.76-18.83-6.18-8.3-.77-28.84-.33-41.06-3.17,14.45-3.82,32.19-19.93,32.19-19.93l.74,7.91,9.46,2.31s14.46-5.24,17.62-4.76c3.18.47,18.06,8.38,19.57,15.61,1.51,7.25-.57,14.51-2.26,14.77-.95.15-8.39-2.76-17.4-6.53Z"/>
          <path class="cls-16" d="M162.86,16.87l-9.69-14.09,30.91.07S190.83-.1,197.75,0c6.9.08,16.26.8,18.18,1.25,6.97,1.62,8.56,15.79,3.41,15.72-3.78-.05-9.02,0-14.79-.02v.02c-18.19-.04-41.69-.1-41.69-.1Z"/>
          <path class="cls-4" d="M218.82,24.16c3.16-.11,6.28,0,9.19.19h.02c.1,0,.19,0,.29.04.07-.02.15,0,.22,0,10.9.87,18.01,3.19,18.01,3.19,4.83,1.29,4.63,8.66,3.49,10.9,3.62.48,7.34-.41,11.37,5.94,3.97,6.26,1.37,12.06-2.42,12.7-11.27,1.65-29.85-1.5-48.05-.25h-.02c-25.59,1.79-49.87,3.01-49.87,3.01l1.51-35.71,42.82,1.98c4.42-1.24,8.98-1.84,13.4-2.01t.05,0Z"/>
          <path class="cls-11" d="M197.09,64.43c4.14-2.79,41.1-5.37,46.59,2.73,4.55,6.71,1.32,13.69-.74,13.6-5.44.76-16.9,1.2-30.43,1.48,0,0-.19,0-.56,0-.14,0-.31-.01-.51,0h-.13c-17.48.39-38.2.38-53.92.34h-.02s3.54-19.66,3.54-19.66l34.66,1.82s.68.24,1.51-.32Z"/>
          <path class="cls-18" d="M111.82,44.52s17.27,18.32,21.29,37.92l8.65.07s9.68-46.42-.19-61.65c0,0-16.01.92-21.43,4.79-5.42,3.87-8.33,18.87-8.33,18.87Z"/>
          <path class="cls-19" d="M211.95,82.24c.37,0,.56,0,.56,0h-1.07c.19-.01.36,0,.51,0Z"/>
          <path class="cls-5" d="M157.59,82.38h-.02s3.02-16.73,3.02-16.73v-.02s.53-2.91.53-2.91l28.11,1.48,6.55.34s.56-.11,1.51-.32c-.19.65-2.51,8.92-1.92,13.41.51,3.86,12.28,4.34,16.16,4.4l-53.92.34Z"/>
          <path class="cls-14" d="M161.24,59.7l1.51-35.71,41.35,1.91,1.48.07c4.42-1.24,8.98-1.84,13.4-2.01-3.03.5-6.3,1.59-9.19,3.9l2.15,9.89s31.98-1.52,38.3.55c0,0-24.21-.53-38.41,2.12,0,0-9.18,10.14-.71,16.27-5.2.36-10.34.71-15.24,1.01-19.21,1.22-34.63,2-34.63,2Z"/>
          <path class="cls-17" d="M228.54,24.41c-.17-.03-.34-.04-.51-.05.41.07.7.14.82.17l-.31-.12Z"/>
          <path class="cls-5" d="M162.86,16.87l-2.03-2.95h0s-7.66-11.13-7.66-11.13l30.91.07-.29,7.84,20.76,6.26v.02c-3.86,0-7.94-.02-11.99-.02h-.02c-15.09-.03-29.68-.07-29.68-.07Z"/>
          <path class="cls-15" d="M133.12,82.44s-3.88-21.74-17.79-33.85c0,0,18.27,8.87,26.45,33.92l-8.65-.07Z"/>
          <path class="cls-6" d="M0,73.84c24.23-3.82,63.86-9.57,69.34-9.5,2.36,0,4.75.16,7.05.59.15.02.31.06.46.09,0,0,5.57,20.54,13.27,30.7-4.82-11.99-10.28-27.22-9.75-32.06.06-.53-.03-.98-.25-1.36-.6-1.02-2.14-1.54-4.32-1.7-8.22-.57-51.06,7.58-75.8,12.54v.7Z"/>
          <path class="cls-7" d="M90.13,95.72c-7.7-10.17-13.27-30.7-13.27-30.7-.15-.03,3.27-2.72,3.27-2.72h0c.22.38.31.83.25,1.36-.53,4.83,4.92,20.07,9.75,32.06Z"/>
          <path class="cls-12" d="M96.94,36.93c-3.97-1.31-5.26,31.13,1.6,45.92,4.77,10.29,8.49,9.47,10.64,9.29,2.15-.18,13.75-6.24,13.85-15.98.1-9.73-14.73-35.5-26.08-39.24Z"/>
          <path class="cls-3" d="M157.46,58.98c1.84.99,3.46-25.42,1.76-38.18-.9-6.76-12.97-18.12-12.98-11.4,0,9.67,5.94,46.76,11.21,49.58Z"/>
          <path class="cls-10" d="M85.53,74.58s3.54,12.35,4.78,14.64,3.69,8.77,6.61,9.58c2.92.8,24.98,3.84,24.98,3.84,0,0-21.38-4.11-25.33-6.36-3.95-2.25-11.04-21.7-11.04-21.7Z"/>
          <path class="cls-10" d="M0,37.35c28.13-4.34,74.61-9.82,74.61-9.82,0,0-45.76,3.94-74.61,7.1v2.71Z"/>
          <path class="cls-10" d="M125.92,7.66s-19.07-1.69-25.5-.02c-6.44,1.67-12.19,10.96-12.19,10.96,0,0,5.5-6.49,14.35-8.61,8.85-2.12,23.35-2.33,23.35-2.33Z"/>
          <path class="cls-2" d="M242.11,79.6s-1.98-9.38-5.33-14.27c0,0,4.89,1.73,6.37,5.39,1.48,3.66-1.04,8.88-1.04,8.88Z"/>
          <path class="cls-10" d="M234.08,64.96s-22.77-.84-34.63,3.14c0,0,10.3-4.61,20.59-5.08,10.3-.47,14.03,1.93,14.03,1.93Z"/>
          <path class="cls-2" d="M219.4,14.83s-1.55-7.35-4.18-11.19c0,0,3.72,1.42,5,4.23,1.78,3.88-.25,7.9-.82,6.96Z"/>
          <path class="cls-10" d="M213.1,3.34s-17.86-.66-27.16,2.46c0,0,8.08-3.62,16.15-3.98,8.07-.37,11.01,1.52,11.01,1.52Z"/>
          <path class="cls-2" d="M259.32,55.11s-2.46-9.55-5.56-14.49c0,0,4.57,1.71,5.92,5.41,1.35,3.7-.36,9.08-.36,9.08Z"/>
          <path class="cls-2" d="M249.68,37.44c.15-.89.22-1.8.15-2.64-.31-3.59-3.37-5.8-3.37-5.8.61,2.22.96,5.28,1.16,7.97.71.08,1.4.24,2.06.47Z"/>
          <path class="cls-10" d="M244.69,29.17s-20.48-3.31-32.35-1.94c0,0,10.36-2.08,20.54-.97,10.19,1.11,11.81,2.9,11.81,2.9Z"/>
          <path class="cls-2" d="M177.33,115.16s1.48-7.68.98-12.45c0,0,1.96,4.34,1.77,7.57-.19,3.23-2.75,4.89-2.75,4.89Z"/>
          <path class="cls-10" d="M175.61,114.43s-16.02-7.68-22.58-15.55c0,0,5.23,7.84,12.14,12.06,6.9,4.21,10.44,3.49,10.44,3.49Z"/>
          <path class="cls-10" d="M0,70.89c29.56-4.38,76.79-10.47,76.79-10.47-15.07-.99-52.55,5.34-76.79,9.87v.6Z"/>
          <path class="cls-8" d="M197.99,40.69l-36.23,2.24.11-2.64c9.77,2.28,22.08.54,36.12.39Z"/>
          <path class="cls-15" d="M197.99,40.69l-36.23,2.24.41-9.7c2.19.51,4.77,5.06,4.77,5.06l46.88.63-15.82,1.76Z"/>
          <path class="cls-15" d="M159.3,71.89l1.09-6.05.53-2.91,34.66,1.82c-15.7,1.09-32.24,1.88-36.27,7.14Z"/>
          <path class="cls-15" d="M192.54,16.95c-15.09-.03-29.68-.07-29.68-.07l-2.03-2.95c8.19,1.48,19.53,2.34,31.71,3.03Z"/>
          <path class="cls-15" d="M162.34,29.09l.21-4.9,41.35,1.91c-14.88.13-28.81,1.07-41.55,2.99Z"/>
          <path class="cls-9" d="M79.53,23.58S18.49,30.7,2.39,31.88c-.78.06-1.59.12-2.39.18v41.42c2.25-.34,50.69-6.92,51.57-7.06.05,0,.1-.02.15-.03.62-.1,1.25-.2,1.86-.3.67-.11,1.35-.21,2.01-.31.43-.06.86-.13,1.29-.19.22-.03.43-.06.64-.09,1.07-.16,2.11-.3,3.11-.43.55-.07,1.09-.14,1.61-.2.61-.07,1.2-.14,1.76-.2.36-.03.7-.07,1.04-.1.54-.05,1.07-.09,1.56-.13.4-.03.79-.05,1.15-.06.19-.01.38-.02.56-.02.18,0,.36-.01.53-.01.17,0,.34,0,.5,0,2.52,0,5.06.19,7.51.68,0,0,.03.1.08.29.01.04.03.1.05.15.24.85.84,2.91,1.72,5.63.14.4.28.82.42,1.25.03.11.07.21.11.32.07.22.15.44.22.66.17.47.34.96.51,1.46.11.33.23.66.35.99.04.12.09.24.13.36.13.37.27.74.41,1.11.28.75.57,1.51.87,2.28.1.25.2.51.31.77.09.2.17.4.25.6.08.21.17.42.26.64.09.21.18.42.27.64.17.42.36.84.54,1.26.09.22.19.44.29.66.09.21.19.43.28.64.38.85.78,1.7,1.19,2.53.1.21.2.42.31.62.1.21.2.41.31.62.1.2.21.41.31.61.21.4.43.81.64,1.2,0,0,0,0,0,.01.2.35.39.7.59,1.04.25.43.5.84.74,1.25.23.37.46.73.69,1.09.47.71.94,1.39,1.42,2.02.27.37.55.72.84,1.05.15.18.3.36.45.53.61.69,1.22,1.3,1.86,1.82.16.13.31.26.48.38.16.12.31.24.48.35,0,0,0,.01.01.01.15.11.31.21.46.3.16.1.31.19.47.27,0,0,.02.01.03.01.16.09.31.16.47.24,10.4,4.7,36.65,3.96,46.32,4.85,4.25.43,11.7,3.23,18.83,6.18-.6-.62-10.01-10.51-9.98-12.29.03-1.83,4.93-10.05,10.09-11.53-3.16-.49-17.62,4.76-17.62,4.76l-9.46-2.31-.74-7.91s-16.05,15.28-32.65,10.89c0,0-10.67-25.72-8.76-49.65,1.91-23.93,11.57-36.87,11.57-36.87,0,0,19.3-3.89,29.65-4.16-14.24.14-31.95.86-39.03,3.43l-14.37,17.5Z"/>
          <path class="cls-15" d="M161.24,59.7l.6-14.11c.76.49,2.46,7.57,2.46,7.57l10.68,2.98,20.9,1.57c-19.21,1.22-34.63,2-34.63,2Z"/>
        </g>
      </g>
    </g>
  </g>
</svg>