<svg xmlns="http://www.w3.org/2000/svg" xmlns:xlink="http://www.w3.org/1999/xlink" viewBox="0 0 118.28 263.4"><defs><linearGradient id="_Áåçûìÿííûé_ãðàäèåíò_151" data-name="Áåçûìÿííûé ãðàäèåíò 151" x1="5240.52" y1="-2084.15" x2="5240.52" y2="-2415.83" gradientTransform="rotate(2.42 -54598.52 -123788.262)" gradientUnits="userSpaceOnUse"><stop offset=".02" stop-color="#ffb880"/><stop offset="1" stop-color="#ff8777"/></linearGradient><linearGradient id="_Áåçûìÿííûé_ãðàäèåíò_152" data-name="Áåçûìÿííûé ãðàäèåíò 152" x1="5250.01" y1="-2262.05" x2="5299.41" y2="-2311.45" gradientTransform="rotate(2.42 -54598.52 -123788.262)" gradientUnits="userSpaceOnUse"><stop offset="0" stop-color="#ff8777"/><stop offset=".98" stop-color="#ffb880"/></linearGradient><linearGradient id="_Áåçûìÿííûé_ãðàäèåíò_152-2" data-name="Áåçûìÿííûé ãðàäèåíò 152" x1="5190.2" y1="-2305.67" x2="5190.2" y2="-2375.22" xlink:href="#_Áåçûìÿííûé_ãðàäèåíò_152"/><linearGradient id="_Áåçûìÿííûé_ãðàäèåíò_152-3" data-name="Áåçûìÿííûé ãðàäèåíò 152" x1="5223.28" y1="-2315.95" x2="5223.28" y2="-2417.83" xlink:href="#_Áåçûìÿííûé_ãðàäèåíò_152"/><linearGradient id="_Áåçûìÿííûé_ãðàäèåíò_152-4" data-name="Áåçûìÿííûé ãðàäèåíò 152" x1="5253.49" y1="-2313.24" x2="5253.49" y2="-2401.44" xlink:href="#_Áåçûìÿííûé_ãðàäèåíò_152"/><linearGradient id="_Áåçûìÿííûé_ãðàäèåíò_55" data-name="Áåçûìÿííûé ãðàäèåíò 55" x1="5262.63" y1="-2367.25" x2="5262.63" y2="-2368.32" gradientTransform="rotate(2.42 -54598.52 -123788.262)" gradientUnits="userSpaceOnUse"><stop offset="0" stop-color="#b060f4"/><stop offset="1" stop-color="#ffeadb"/></linearGradient><linearGradient id="_Áåçûìÿííûé_ãðàäèåíò_409" data-name="Áåçûìÿííûé ãðàäèåíò 409" x1="-4463.34" y1="-2381.84" x2="-4463.34" y2="-2382.67" gradientTransform="scale(-1 1) rotate(-2.42 54979.319 -106250.548)" gradientUnits="userSpaceOnUse"><stop offset="0" stop-color="#ffeadb"/><stop offset=".99" stop-color="#b060f4"/></linearGradient><linearGradient id="_Áåçûìÿííûé_ãðàäèåíò_59" data-name="Áåçûìÿííûé ãðàäèåíò 59" x1="1154.89" y1="2668.57" x2="1208.25" y2="2668.57" gradientTransform="rotate(7.89 18843.83 -6679.939)" gradientUnits="userSpaceOnUse"><stop offset="0"/><stop offset=".04" stop-color="#0b0300"/><stop offset=".4" stop-color="#6a1e00"/><stop offset=".69" stop-color="#b03200"/><stop offset=".89" stop-color="#db3f00"/><stop offset="1" stop-color="#ec4400"/></linearGradient><linearGradient id="_Áåçûìÿííûé_ãðàäèåíò_59-2" data-name="Áåçûìÿííûé ãðàäèåíò 59" x1="-356.54" y1="6301.46" x2="-306.7" y2="6301.46" gradientTransform="rotate(-172.11 -248.725 1542.377) scale(1 .48)" xlink:href="#_Áåçûìÿííûé_ãðàäèåíò_59"/><style>.cls-2,.cls-5,.cls-10,.cls-15{stroke-width:0}.cls-2{fill:#f5ee8f}.cls-2,.cls-10{mix-blend-mode:soft-light;opacity:.97}.cls-5,.cls-15{mix-blend-mode:multiply}.cls-5{fill:#f3bac0}.cls-5,.cls-15{fill-rule:evenodd}.cls-5{opacity:.2}.cls-15{fill:#d87290}.cls-10{fill:#f5ffff}.cls-15{opacity:.3}</style></defs><g style="isolation:isolate"><g id="Layer_2" data-name="Layer 2"><g id="Layer_1-2" data-name="Layer 1"><path d="M2.79 110.23s-.25 8.48-.15 19.15c.01.34 0 .7 0 1.09.14 14.24.86 31.95 3.43 39.03l17.5 14.37s7.12 61.04 8.3 77.15c.06.78.12 1.59.18 2.39h41.42c-.34-2.25-6.92-50.69-7.06-51.57 0-.05-.02-.1-.03-.15-.1-.62-.2-1.25-.3-1.86-.11-.67-.21-1.35-.31-2.01-.07-.44-.14-.86-.19-1.29-.04-.22-.06-.43-.09-.64-.16-1.07-.3-2.11-.43-3.11-.07-.55-.14-1.09-.2-1.61-.07-.61-.14-1.2-.2-1.76-.03-.36-.07-.7-.1-1.04-.05-.54-.09-1.07-.13-1.56-.03-.4-.05-.79-.06-1.15-.01-.19-.02-.38-.02-.56 0-.18-.01-.36-.01-.53v-.5c0-2.52.19-5.06.68-7.51 0 0 .1-.03.29-.08.04-.01.1-.03.15-.05.85-.24 2.91-.84 5.63-1.72.4-.14.82-.28 1.25-.42.11-.03.21-.07.32-.11.22-.07.44-.15.66-.22.47-.17.96-.34 1.46-.51.33-.11.66-.23.99-.35.12-.04.24-.09.36-.13.37-.13.74-.27 1.11-.41.75-.28 1.51-.57 2.28-.87.25-.1.51-.2.77-.31.2-.09.4-.17.6-.25.21-.08.42-.17.64-.26.21-.09.42-.18.64-.27.42-.17.84-.36 1.26-.54.22-.09.44-.19.66-.29.21-.09.43-.19.64-.28.85-.38 1.7-.78 2.53-1.19.21-.1.42-.2.62-.31.21-.1.41-.2.62-.31.2-.1.41-.21.61-.31.4-.21.81-.43 1.2-.64h.01c.35-.2.7-.39 1.04-.59.43-.25.84-.5 1.25-.74.37-.23.73-.46 1.09-.69.71-.47 1.39-.94 2.02-1.42.37-.27.72-.55 1.05-.84.18-.15.36-.3.53-.45.69-.61 1.3-1.22 1.82-1.86.13-.16.26-.31.38-.48.12-.16.24-.31.35-.48 0 0 .01 0 .01-.01.11-.15.21-.31.3-.46.1-.16.19-.31.27-.47 0 0 .01-.02.01-.03.09-.16.16-.31.24-.47 4.7-10.4 3.96-36.65 4.85-46.32.43-4.25 3.23-11.7 6.18-18.83l.03-.02c3.77-9.01 6.68-16.45 6.53-17.4-.26-1.68-7.51-3.77-14.77-2.26-7.23 1.51-15.14 16.39-15.61 19.57-.49 3.16 4.76 17.62 4.76 17.62l-2.31 9.46-7.91.74.07-8.66c.04-4.12.05-9.48.08-15.59v-.02c.04-15.76.04-36.55-.34-54.05-.02-.19-.01-.36 0-.51v-.56c-.28-13.52-.72-24.99-1.48-30.43.09-2.05-11.1-3.96-12.97-.03-1.27 2.68-4.29 20.06-5.39 25.93-.88 4.77 1.22 15.89 2.03 19.95.21.95.32 1.51.32 1.51l-1.82 34.66-3.03-.13s-1.22-24.29-3.01-49.87v-.02c-1.25-18.2-.61-35.96-2.26-47.24-.64-3.8-9.52-4.38-12.5-1.56 0 0-3.16 6.08-3.64 9.69-2.24-1.15-9.61-1.34-10.9 3.49 0 0-2.32 7.11-3.19 18.01 0 .07-.03.15 0 .22-.03.1-.04.19-.04.29v.02c-.2 2.9-.31 6.02-.2 9.19v.05c.17 4.42.77 8.98 2.01 13.4l-1.98 42.82v.14l-7.32-.45s.06-23.5.1-41.68h-.02c.02-5.78.02-11.01.02-14.8-.07-2.53-14.25-.71-15.72 3.41C.58 49.33.08 58.74 0 65.64c-.1 6.92 2.85 13.67 2.85 13.67l-.07 30.91Z" style="stroke-width:0;fill:url(#_Áåçûìÿííûé_ãðàäèåíò_151)"/><path d="m111.75 102.56-.03.02c-2.95 7.13-5.76 14.58-6.18 18.83-.77 8.3-.33 28.84-3.17 41.06-3.82-14.45-19.93-32.19-19.93-32.19l7.91-.74 2.31-9.46s-5.24-14.46-4.76-17.62c.47-3.18 8.38-18.06 15.61-19.57 7.25-1.51 14.51.57 14.77 2.26.15.95-2.76 8.39-6.53 17.4Z" style="fill:url(#_Áåçûìÿííûé_ãðàäèåíò_152);stroke-width:0"/><path d="m16.87 100.54-14.09 9.69.07-30.91S-.1 72.57 0 65.64c.08-6.9.8-16.26 1.25-18.18 1.62-6.97 15.79-8.56 15.72-3.41-.05 3.78 0 9.02-.02 14.79h.02c-.04 18.19-.1 41.69-.1 41.69Z" style="fill:url(#_Áåçûìÿííûé_ãðàäèåíò_152-2);stroke-width:0"/><path d="M24.16 44.57c-.11-3.16 0-6.28.19-9.19v-.02c0-.1 0-.19.04-.29-.02-.07 0-.15 0-.22.87-10.9 3.19-18.01 3.19-18.01 1.29-4.83 8.66-4.63 10.9-3.49.48-3.62-.41-7.34 5.94-11.37C50.68-1.99 56.48.61 57.12 4.4c1.65 11.27-1.5 29.85-.25 48.05v.02c1.79 25.59 3.01 49.87 3.01 49.87l-35.71-1.51 1.98-42.82c-1.24-4.42-1.84-8.98-2.01-13.4v-.05Z" style="fill:url(#_Áåçûìÿííûé_ãðàäèåíò_152-3);stroke-width:0"/><path d="M64.43 66.31c-2.79-4.14-5.37-41.1 2.73-46.59 6.71-4.55 13.69-1.32 13.6.74.76 5.44 1.2 16.9 1.48 30.43v.56c0 .14-.01.31 0 .51v.13c.39 17.48.38 38.2.34 53.92v.02l-19.66-3.54 1.82-34.66s.24-.68-.32-1.51Z" style="fill:url(#_Áåçûìÿííûé_ãðàäèåíò_152-4);stroke-width:0"/><path d="M44.52 151.57s18.32-17.27 37.92-21.29l.07-8.65s-46.42-9.68-61.65.19c0 0 .92 16.01 4.79 21.43 3.87 5.42 18.87 8.33 18.87 8.33Z" style="opacity:.6;fill-rule:evenodd;fill:#f3bac0;mix-blend-mode:multiply;stroke-width:0"/><path d="M82.24 51.44v-.56 1.07c-.01-.19 0-.36 0-.51Z" style="fill:url(#_Áåçûìÿííûé_ãðàäèåíò_55);opacity:.6;fill-rule:evenodd;mix-blend-mode:multiply;stroke-width:0"/><path class="cls-5" d="M82.38 105.81v.02l-16.73-3.02h-.02l-2.91-.53 1.48-28.11.34-6.55s-.11-.56-.32-1.51c.65.19 8.92 2.51 13.41 1.92 3.86-.51 4.34-12.28 4.4-16.16l.34 53.92Z"/><path d="m59.7 102.16-35.71-1.51L25.9 59.3l.07-1.48c-1.24-4.42-1.84-8.98-2.01-13.4.5 3.03 1.59 6.3 3.9 9.19l9.89-2.15s-1.52-31.98.55-38.3c0 0-.53 24.21 2.12 38.41 0 0 10.14 9.18 16.27.71.36 5.2.71 10.34 1.01 15.24 1.22 19.21 2 34.63 2 34.63Z" style="fill:#d87290;opacity:.2;fill-rule:evenodd;mix-blend-mode:multiply;stroke-width:0"/><path d="M24.41 34.86c-.03.17-.04.34-.05.51.07-.41.14-.7.17-.82l-.12.31Z" style="fill:url(#_Áåçûìÿííûé_ãðàäèåíò_409);opacity:.6;fill-rule:evenodd;mix-blend-mode:multiply;stroke-width:0"/><path class="cls-5" d="m16.87 100.54-2.95 2.03-11.13 7.66.07-30.91 7.84.29 6.26-20.76h.02c0 3.86-.02 7.94-.02 11.99v.02c-.03 15.09-.07 29.68-.07 29.68Z"/><path class="cls-15" d="M82.44 130.28s-21.74 3.88-33.85 17.79c0 0 8.87-18.27 33.92-26.45l-.07 8.65Z"/><path d="M73.84 263.4c-3.82-24.23-9.57-63.86-9.5-69.34 0-2.36.16-4.75.59-7.05.02-.15.06-.31.09-.46 0 0 20.54-5.57 30.7-13.27-11.99 4.82-27.22 10.28-32.06 9.75-.53-.06-.98.03-1.36.25-1.02.6-1.54 2.14-1.7 4.32-.57 8.22 7.58 51.06 12.54 75.8h.7Z" style="opacity:.6;fill:#f3bac0;mix-blend-mode:multiply;stroke-width:0"/><path d="M95.72 173.27c-10.17 7.7-30.7 13.27-30.7 13.27-.03.15-2.72-3.27-2.72-3.27.38-.22.83-.31 1.36-.26 4.83.53 20.07-4.92 32.06-9.75Z" style="fill:#d87290;opacity:.5;mix-blend-mode:multiply;stroke-width:0"/><path d="M36.93 166.46c-1.31 3.97 31.13 5.26 45.92-1.6 10.29-4.77 9.47-8.49 9.29-10.64-.18-2.15-6.24-13.75-15.98-13.85-9.73-.1-35.5 14.73-39.24 26.08Z" style="fill:url(#_Áåçûìÿííûé_ãðàäèåíò_59);mix-blend-mode:screen;stroke-width:0"/><path d="M58.98 105.94c.99-1.84-25.42-3.46-38.18-1.76-6.76.9-18.12 12.97-11.4 12.98 9.67 0 46.76-5.94 49.58-11.21Z" style="mix-blend-mode:screen;fill:url(#_Áåçûìÿííûé_ãðàäèåíò_59-2);stroke-width:0"/><path class="cls-10" d="M74.58 177.87s12.35-3.54 14.64-4.78 8.77-3.69 9.58-6.61c.8-2.92 3.84-24.98 3.84-24.98s-4.11 21.38-6.36 25.33c-2.25 3.95-21.7 11.04-21.7 11.04ZM37.35 263.4c-4.34-28.13-9.82-74.61-9.82-74.61s3.94 45.76 7.1 74.61h2.71ZM7.66 137.48s-1.69 19.07-.02 25.5c1.67 6.44 10.96 12.19 10.96 12.19s-6.49-5.5-8.61-14.35c-2.12-8.85-2.33-23.35-2.33-23.35Z"/><path class="cls-2" d="M79.6 21.29s-9.38 1.98-14.27 5.33c0 0 1.73-4.89 5.39-6.37 3.66-1.48 8.88 1.04 8.88 1.04Z"/><path class="cls-10" d="M64.96 29.32s-.84 22.77 3.14 34.63c0 0-4.61-10.3-5.08-20.59-.47-10.3 1.93-14.03 1.93-14.03Z"/><path class="cls-2" d="M14.83 44s-7.35 1.55-11.19 4.18c0 0 1.42-3.72 4.23-5 3.88-1.78 7.9.25 6.96.82Z"/><path class="cls-10" d="M3.34 50.3S2.68 68.16 5.8 77.46c0 0-3.62-8.08-3.98-16.15-.37-8.07 1.52-11.01 1.52-11.01Z"/><path class="cls-2" d="M55.11 4.07s-9.55 2.46-14.49 5.56c0 0 1.71-4.57 5.41-5.92 3.7-1.35 9.08.36 9.08.36ZM37.44 13.72c-.89-.15-1.8-.22-2.64-.15-3.59.31-5.8 3.37-5.8 3.37 2.22-.61 5.28-.96 7.97-1.16.08-.71.24-1.4.47-2.06Z"/><path class="cls-10" d="M29.17 18.71s-3.31 20.48-1.94 32.35c0 0-2.08-10.36-.97-20.54 1.11-10.19 2.9-11.81 2.9-11.81Z"/><path class="cls-2" d="M115.16 86.06s-7.68-1.48-12.45-.98c0 0 4.34-1.96 7.57-1.77 3.23.19 4.89 2.75 4.89 2.75Z"/><path class="cls-10" d="M114.43 87.79s-7.68 16.02-15.55 22.58c0 0 7.84-5.23 12.06-12.14 4.21-6.9 3.49-10.44 3.49-10.44ZM70.89 263.4c-4.38-29.56-10.47-76.79-10.47-76.79-.99 15.07 5.34 52.55 9.87 76.79h.6Z"/><path d="m40.69 65.4 2.24 36.23-2.64-.11c2.28-9.77.54-22.08.39-36.12Z" style="fill:#b24d61;fill-rule:evenodd;stroke-width:0"/><path class="cls-15" d="m40.69 65.4 2.24 36.23-9.7-.41c.51-2.19 5.06-4.77 5.06-4.77l.63-46.88 1.76 15.82ZM71.89 104.1l-6.05-1.09-2.91-.53 1.82-34.66c1.09 15.7 1.88 32.24 7.14 36.27ZM16.95 70.85c-.03 15.09-.07 29.68-.07 29.68l-2.95 2.03c1.48-8.19 2.34-19.53 3.03-31.71ZM29.09 101.05l-4.9-.21 1.91-41.35c.13 14.88 1.07 28.81 2.99 41.55Z"/><path d="M23.58 183.87s7.12 61.04 8.3 77.15c.06.78.12 1.59.18 2.39h41.42c-.34-2.25-6.92-50.69-7.06-51.57 0-.05-.02-.1-.03-.15-.1-.62-.2-1.25-.3-1.86-.11-.67-.21-1.35-.31-2.01-.06-.43-.13-.86-.19-1.29l-.09-.64c-.16-1.07-.3-2.11-.43-3.11-.07-.55-.14-1.09-.2-1.61-.07-.61-.14-1.2-.2-1.76-.03-.36-.07-.7-.1-1.04-.05-.54-.09-1.07-.13-1.56-.03-.4-.05-.79-.06-1.15-.01-.19-.02-.38-.02-.56 0-.18-.01-.36-.01-.53v-.5c0-2.52.19-5.06.68-7.51 0 0 .1-.03.29-.08.04-.01.1-.03.15-.05.85-.24 2.91-.84 5.63-1.72.4-.14.82-.28 1.25-.42.11-.03.21-.07.32-.11.22-.07.44-.15.66-.22.47-.17.96-.34 1.46-.51.33-.11.66-.23.99-.35.12-.04.24-.09.36-.13.37-.13.74-.27 1.11-.41.75-.28 1.51-.57 2.28-.87.25-.1.51-.2.77-.31.2-.09.4-.17.6-.25.21-.08.42-.17.64-.26.21-.09.42-.18.64-.27.42-.17.84-.36 1.26-.54.22-.09.44-.19.66-.29.21-.09.43-.19.64-.28.85-.38 1.7-.78 2.53-1.19.21-.1.42-.2.62-.31.21-.1.41-.2.62-.31.2-.1.41-.21.61-.31.4-.21.81-.43 1.2-.64h.01c.35-.2.7-.39 1.04-.59.43-.25.84-.5 1.25-.74.37-.23.73-.46 1.09-.69.71-.47 1.39-.94 2.02-1.42.37-.27.72-.55 1.05-.84.18-.15.36-.3.53-.45.69-.61 1.3-1.22 1.82-1.86.13-.16.26-.31.38-.48.12-.16.24-.31.35-.48 0 0 .01 0 .01-.01.11-.15.21-.31.3-.46.1-.16.19-.31.27-.47 0 0 .01-.02.01-.03.09-.16.16-.31.24-.47 4.7-10.4 3.96-36.65 4.85-46.32.43-4.25 3.23-11.7 6.18-18.83-.62.6-10.51 10.01-12.29 9.98-1.83-.03-10.05-4.93-11.53-10.09-.49 3.16 4.76 17.62 4.76 17.62l-2.31 9.46-7.91.74s15.28 16.05 10.89 32.65c0 0-25.72 10.67-49.65 8.76-23.93-1.91-36.87-11.57-36.87-11.57s-3.89-19.3-4.16-29.65c.14 14.24.86 31.95 3.43 39.03l17.5 14.37Z" style="opacity:.31;fill:#d87290;mix-blend-mode:multiply;stroke-width:0"/><path class="cls-15" d="m59.7 102.16-14.11-.6c.49-.76 7.57-2.46 7.57-2.46l2.98-10.68 1.57-20.9c1.22 19.21 2 34.63 2 34.63Z"/></g></g></g></svg>