<?xml version="1.0" encoding="UTF-8"?>
<svg xmlns="http://www.w3.org/2000/svg" xmlns:xlink="http://www.w3.org/1999/xlink" viewBox="0 0 120.16 205.57">
  <defs>
    <style>.cls-1 {
  fill: url("#_Áåçûìÿííûé_ãðàäèåíò_151");
}

.cls-1, .cls-2, .cls-3, .cls-4, .cls-5, .cls-6, .cls-7, .cls-8, .cls-9, .cls-10, .cls-11, .cls-12, .cls-13, .cls-14 {
  stroke-width: 0;
}

.cls-2 {
  fill: #f5ee8f;
}

.cls-2, .cls-7, .cls-8, .cls-10, .cls-14 {
  mix-blend-mode: soft-light;
  opacity: .97;
}

.cls-3 {
  fill: #f3bac0;
  opacity: .6;
}

.cls-3, .cls-5, .cls-9, .cls-13 {
  mix-blend-mode: multiply;
}

.cls-15 {
  isolation: isolate;
}

.cls-4 {
  fill: #e86c7c;
}

.cls-5 {
  opacity: .5;
}

.cls-5, .cls-9, .cls-13 {
  fill: #d87290;
}

.cls-6 {
  fill: url("#_Áåçûìÿííûé_ãðàäèåíò_54");
  mix-blend-mode: screen;
}

.cls-7 {
  fill: #f5af8f;
}

.cls-8 {
  fill: #f5d3d2;
}

.cls-9 {
  opacity: .31;
}

.cls-10 {
  fill: #f5ffff;
}

.cls-11 {
  fill: #ab3d52;
}

.cls-12 {
  fill: url("#_Áåçûìÿííûé_ãðàäèåíò_152");
}

.cls-13 {
  opacity: .3;
}

.cls-14 {
  fill: #f5a995;
}
</style>
    <linearGradient id="_Áåçûìÿííûé_ãðàäèåíò_152" data-name="Áåçûìÿííûé ãðàäèåíò 152" x1="3151.73" y1="-1396.13" x2="3151.73" y2="-1469.09" gradientTransform="translate(3178.49 1513.25) rotate(-179.19) scale(1 -1)" gradientUnits="userSpaceOnUse">
      <stop offset="0" stop-color="#ff8777"></stop>
      <stop offset=".98" stop-color="#ffb880"></stop>
    </linearGradient>
    <linearGradient id="_Áåçûìÿííûé_ãðàäèåíò_151" data-name="Áåçûìÿííûé ãðàäèåíò 151" x1="3137.28" y1="-1263.06" x2="3137.28" y2="-1458.66" gradientTransform="translate(3178.49 1513.25) rotate(-179.19) scale(1 -1)" gradientUnits="userSpaceOnUse">
      <stop offset=".02" stop-color="#ffb880"></stop>
      <stop offset="1" stop-color="#ff8777"></stop>
    </linearGradient>
    <linearGradient id="_Áåçûìÿííûé_ãðàäèåíò_54" data-name="Áåçûìÿííûé ãðàäèåíò 54" x1="3086.05" y1="-1389.42" x2="3175.25" y2="-1389.42" gradientTransform="translate(3178.49 1513.25) rotate(-179.19) scale(1 -1)" gradientUnits="userSpaceOnUse">
      <stop offset="0" stop-color="#ec4400"></stop>
      <stop offset=".11" stop-color="#db3f00"></stop>
      <stop offset=".31" stop-color="#b03200"></stop>
      <stop offset=".6" stop-color="#6a1e00"></stop>
      <stop offset=".96" stop-color="#0b0300"></stop>
      <stop offset="1" stop-color="#000"></stop>
    </linearGradient>
  </defs>
  <g class="cls-15">
    <g id="Layer_2" data-name="Layer 2">
      <g id="Layer_1-2" data-name="Layer 1">
        <g>
          <path class="cls-12" d="M94.39,51.64s-.66-29.77-1.57-35.4c-.91-5.63-7.67-14.69-11.3-15.93-3.63-1.23-13.71,1.23-17.61,4.97-1.87,1.79-2.43,4.89-2.43,4.89,0,0-2.62-2.6-8.52-3.57-5.9-.97-15.02,3.33-15.8,9.04,0,0-14.79.77-20.25,10.65,0,0-.73,2.55-.1,6.99,0,0-14.45,4.52-16.35,13.07-1.89,8.55,2.65,21.62,2.65,21.62,0,0,16.65,7.33,49.42,2.87,32.78-4.46,41.85-19.21,41.85-19.21Z"></path>
          <path class="cls-1" d="M11.78,109.88c3.28,5.37,10.87,11.39,11.82,14.55.94,3.16-1.2,56.15.49,76.28,0,0,15.22,10.47,48.07.68,0,0-7.87-66.43-6.01-72.91,0,0,0-.03.03-.09,2.06-6.52,26.41-22.93,35.82-27.24.02,0,.02-.02.03-.02.02-.02.03-.02.03-.02,9.42-4.3,15.05-11.95,15.54-15.49.3-2.12,0-9.33-.25-16.42-.17-4.81-.28-9.57-.15-12.64.33-7.61,3.28-17.66,2.92-20.22-.35-2.58-3.45-6.55-5.51-7.77-1.67-.99-12.57-3.75-21.29-6.68-1.99-.65-3.85-1.32-5.48-1.98-8.83-3.57-18.57-9.52-20.25-9.65-.56-.04-1.47.6-2.41,1.67-.02.02-.05.05-.08.08-.98,1.09-1.99,2.61-2.73,4.24,0,.02-.02.05-.02.06-.68,1.52-1.11,3.14-1.03,4.62,0,0,.03.2.07.58.88,5.22,10.22,18.69,25.92,21.66l6.82-1.14.3-.04s.77,8.19-.04,9.66c-.02.03-.03.06-.06.08-1.58,1.58-24.39,6.8-41.79,19.12,0,0-30.68,1.48-44.41-1.27-.05,0-.08,0-.11-.02-1.15-.23-2.18-.48-3.06-.79-.11-.03-.2-.08-.31-.11-.54-.18-1.02-.39-1.43-.63-.05-.02-.08-.03-.11-.05,0,0,4.62,31.35,7.91,40.24.26.71.51,1.27.76,1.66Z"></path>
          <path class="cls-9" d="M.03,48.82c-.02.62-.03,1.26-.03,1.87,0,.41,0,.78.01,1.17.02.81.07,1.62.14,2.4.03.28.05.56.08.83.08.87.19,1.7.32,2.52.73,4.89,1.98,8.73,2.42,9.96.07.27.13.41.13.41.03.02.06.03.11.05.43.22.91.43,1.43.63.11.03.2.08.31.11,12.71,4.83,43.36,5.08,43.36,5.08l-7.08,8.32s12.25-7.56,25.76-14.28c6.05-3.02,12.35-5.85,17.91-7.76,5.42-1.86,10.15-2.84,13.29-2.26,13.58,2.49,19.15,11.35,19.15,11.35-.17-4.81-.28-9.57-.15-12.64.33-7.61,3.28-17.66,2.92-20.22-3.11,3.79-25.25,3.43-28.02,2.5-12.94-4.34-26.51-21.02-26.56-24.17-.05-2.96,1.79-4.25,2.03-4.4-.93.44-1.71,1.01-2.39,1.65-.02.02-.05.05-.08.08-1.3,1.26-2.16,2.79-2.73,4.24,0,.02-.02.05-.02.06-.96,2.47-1.03,4.62-1.03,4.62,0,0,.03.2.07.58.03.3.07.72.11,1.22.52,5.92,1.99,24.44-.58,26.84-3.07,2.84-21.92,3.17-23.06.19-1.14-2.96-.7-34.1-.7-34.1-1.24,9.42-1,34.31-1.32,35.71-.32,1.4-14.39,3.41-15.9.94-1.43-2.3-2.93-16.98-3.12-18.81.31,9.04,1.67,22.83,1.67,22.83-2.38,1.88-12.68,1.85-13.9.89-1.13-.87-4.05-7.23-4.52-8.25-.05-.09-.06-.14-.06-.14Z"></path>
          <path class="cls-7" d="M87.85,19.91s.53,1.1-.03,2.08c-.56.98-11.32.94-16.23-1.91-4.91-2.84-2.87-9.46-2.87-9.46l19.13,9.29Z"></path>
          <path class="cls-5" d="M103.27,40.49l-9.14,1.55.06,2.23s2.04-.92,9.08-3.78Z"></path>
          <path class="cls-13" d="M5.71,66.25l-2.6,1.73s24.07,7.05,45.21,5.87c0,0,38.31-15.99,46.07-22.2l.04-9.66s-5.74.99-7.12,1.18c-1.38.18-5.15-1.02-5.15-1.02,0,0-2.4,5.35-5.57,6.29-1.3.39-3.27.41-5.2.25-2.77-.23-5.5-.83-6.11-1.3-1.08-.8-2.12-11.12-2.12-11.12,0,0,.49,21.55-.33,23.51-.81,1.97-18.65,9.3-22.03,4.32,0,0-10.77,2.92-14.2,1.44-3.43-1.48-4.67-5.06-4.67-5.06,0,0-.56,5.61-4.91,6.54-4.35.92-8.17-.52-9.83-2.21-.15-.16-.32-.36-.51-.62-1.73-2.33-4.81-8.31-5.22-9.12l2.98,7.86,1.26,3.34Z"></path>
          <path class="cls-13" d="M72.16,201.39s-7.87-66.43-6.01-72.91c1.87-6.46,26.44-23.04,35.88-27.35-1.35.37-44.43,12.22-47.38,15.66-3.01,3.51-.1,62.87,17.52,84.6Z"></path>
          <path class="cls-3" d="M23.6,124.43c.94,3.16-1.2,56.15.49,76.28,0,0,15.22,10.47,48.07.68,0,0-7.87-66.43-6.01-72.91,0,0,0-.03.03-.09.01-.05.04-.1.06-.15.63-1.49,5.31-9.88,35.76-27.1-1.14.34-38.15,11.69-57.39,14.63-19.56,2.97-33.59-7.56-33.59-7.56.26.71.51,1.27.76,1.66,3.28,5.37,10.87,11.39,11.82,14.55Z"></path>
          <path class="cls-4" d="M87.85,19.91s.19,2.32-5.16,2.64c-6.51.38-11.72-2.88-11.72-2.88,0,0,5.21,4.28,14.5,3.16s2.38-2.92,2.38-2.92Z"></path>
          <path class="cls-8" d="M71.08,11.77s-2.07,2.72-.11,7.9c0,0-4.11-2.08-2.24-9.05l2.36,1.14Z"></path>
          <path class="cls-8" d="M84.86,18.46s-.28,1.96,1.46,3.31c0,0,1.46-.75,1.54-1.86l-2.99-1.45Z"></path>
          <path class="cls-5" d="M.03,48.82c-.02.62-.03,1.26-.03,1.87,0,.41,0,.78.01,1.17.02.81.07,1.62.14,2.4.03.28.05.56.08.83.08.87.19,1.7.32,2.52.73,4.89,1.98,8.73,2.42,9.96.07.27.13.41.13.41.03.02.06.03.11.05.43.22.91.43,1.43.63.11.03.2.08.31.11,12.71,4.83,43.36,5.08,43.36,5.08l46.07-22.2.04-9.66s-5.7,1.17-8.42,1.02c-2.73-.15-15.95-4.17-24.5-20.29.52,5.92,1.99,24.44-.58,26.84-3.07,2.84-21.92,3.17-23.06.19-1.14-2.96-.7-34.1-.7-34.1-1.24,9.42-1,34.31-1.32,35.71-.32,1.4-14.39,3.41-15.9.94-1.43-2.3-2.93-16.98-3.12-18.81.31,9.04,1.67,22.83,1.67,22.83-2.38,1.88-12.68,1.85-13.9.89-1.13-.87-4.05-7.23-4.52-8.25-.05-.09-.06-.14-.06-.14Z"></path>
          <polygon class="cls-5" points="86.98 19.49 88 9.67 88.79 16.39 91.34 16.81 92.36 21.57 86.98 19.49"></polygon>
          <path class="cls-5" d="M43.1,65.64s-3.93-9.38-5.24-15.89c-1.31-6.52-1.58-19.01-1.58-19.01,0,0-.61,17.3-.44,20.62.18,3.32,4.97,12.72,4.97,12.72,0,0,1.12.88,2.29,1.56Z"></path>
          <path class="cls-5" d="M21.94,60.46s-1.52-4.8-2.49-9.42c-.97-4.62-2.64-17.75-2.64-17.75,0,0,1.49,19.77,2.1,22.25.61,2.48,3.03,4.92,3.03,4.92Z"></path>
          <path class="cls-5" d="M82.16,42.14s-13.56-4.78-20.66-19.42c0,0,6.34,17.7,18.23,23.34l2.42-3.93Z"></path>
          <path class="cls-5" d="M61.51,22.72s.95-6.01,4.17-7.45c0,0-.6-2.36,1.91-4.99,0,0-6.74,3.09-6.07,12.44Z"></path>
          <path class="cls-7" d="M115.78,29.45s-4.4,1.65-4.55,5.52c-.15,3.87,8.9,1.38,8.9,1.38,0,0-1.41-5.31-4.35-6.9Z"></path>
          <path class="cls-2" d="M81.53.32s-5.24,3.18-10.35,4.78c-5.11,1.6-7.26.19-7.26.19,0,0,7.87-6.29,17.61-4.97Z"></path>
          <path class="cls-2" d="M36.28,15.73s-2.95,3.17-8.91,6.51c-5.96,3.34-10.24,3.7-10.24,3.7,0,0,1.87-7.06,19.15-10.21Z"></path>
          <path class="cls-2" d="M52.96,6.61s-4.99,2.56-9.08,4.35c-4.09,1.79-5.53,1.73-5.53,1.73,0,0,3.61-6.88,14.61-6.08Z"></path>
          <path class="cls-2" d="M16.81,33.29s-3.89,2.03-9.02,5.39c-3.36,2.21-7.07,6.78-7.07,6.78,0,0,1.54-7.47,16.09-12.17Z"></path>
          <path class="cls-6" d="M112.05,63.83s3.34,11.76-5.93,22.56c-9.27,10.8-78.47,16.26-82.86,13.62s47.91-39.06,66.53-41.35c18.63-2.29,22.26,5.17,22.26,5.17Z"></path>
          <path class="cls-5" d="M66.24,128.24s-9.17-1.37-11.59-11.45l47.35-15.64s-31.77,19.12-35.76,27.1Z"></path>
          <path class="cls-11" d="M94.39,51.64s-4.74-5.2-6.9-6.26c-2.16-1.07-6.59-1.2-6.59-1.2l1.26-2.05s3.28,1.1,5.15,1.03c1.88-.07,7.12-1.18,7.12-1.18,0,0,.71,8.09-.04,9.66Z"></path>
          <path class="cls-11" d="M7.2,64.79s1.49,4.06,16.23,4.07c14.76.02,35.14-4.51,38.07-6.43,2.46-1.6,7.71-10.39,9.91-13.74-2.77-.23-5.5-.83-6.11-1.3-1.08-.8-2.12-11.12-2.12-11.12,0,0,.49,21.55-.33,23.51-.81,1.97-18.65,9.3-22.03,4.32,0,0-10.77,2.92-14.2,1.44-3.43-1.48-4.67-5.06-4.67-5.06,0,0-.56,5.61-4.91,6.54-4.35.92-8.17-.52-9.83-2.21Z"></path>
          <path class="cls-11" d="M1.47,55.05l2.98,7.86,2.24,1.26c-1.73-2.33-4.81-8.31-5.22-9.12Z"></path>
          <path class="cls-10" d="M11.09,103.76s-4.7-18.59-7.16-33.65c0,0,7.26,16.36,7.16,33.65Z"></path>
          <path class="cls-10" d="M29.25,197.72s-3.52-39.75-3.85-61.44c0,0-2.56,41.74.31,61.39l3.55.05Z"></path>
          <path class="cls-10" d="M114.95,87.06s-2.66,8.78-11.78,12.2c-9.11,3.42-30.77,8.88-30.77,8.88,0,0,33.77-8.54,42.55-21.08Z"></path>
          <path class="cls-10" d="M18.84,29.09s-.09,13.6,1.76,21.51c0,0-4.12-8.04-1.76-21.51Z"></path>
          <path class="cls-10" d="M3.44,44.98s-.49,7.33,2,11.95c0,0-5.06-5.64-2-11.95Z"></path>
          <path class="cls-10" d="M40.05,15.69s-2.48,16.74-.45,31.48c0,0-5.06-16.48.45-31.48Z"></path>
          <path class="cls-10" d="M113.75,29.42s-7.48-4.04-15.82-4.9c0,0,6.51,5.01,15.82,4.9Z"></path>
          <path class="cls-10" d="M118.7,40.04s-3.26,5.6-3.86,11.9c-.61,6.29,1.56,19.85,1.56,19.85,0,0-.4-23.14,2.3-31.74Z"></path>
          <path class="cls-10" d="M70.95,199.8s-11.08-44.69-8.46-67.52c0,0,4.26,26.47,8.46,67.52Z"></path>
          <path class="cls-14" d="M61.87,55.91c-.59,2.6-8.69,8.97-14.64,7.02,0,0,7.43-3.01,10.7-4.37,3.27-1.36,3.94-2.65,3.94-2.65Z"></path>
          <path class="cls-14" d="M38.2,63.13s-12.3,3.7-15.17-2.65c0,0,8.58,4.11,15.17,2.65Z"></path>
          <path class="cls-14" d="M13.01,66.64s-4.66-3.22-6.31-3.4c0,0,1.73,3.4,6.31,3.4Z"></path>
          <path class="cls-13" d="M59.98,50.15s-4.6,3.18-12.06,3.37c-7.46.19-10.06-3.77-10.06-3.77,0,0,10.27,4.31,22.12.4Z"></path>
          <path class="cls-13" d="M34.61,52.1s-2.07,2.97-6.37,3.8c-4.3.83-7.67-3.07-7.67-3.07,0,0,6.71,2.08,14.03-.73Z"></path>
          <path class="cls-13" d="M17.83,57.1s-2.12,2.3-5.38,2.63c-3.26.33-7.01-2.21-7.01-2.21,0,0,3.97,1.4,12.39-.42Z"></path>
        </g>
      </g>
    </g>
  </g>
</svg>