<svg xmlns="http://www.w3.org/2000/svg" viewBox="0 0 131.44 265.56"><defs><linearGradient id="_Áåçûìÿííûé_ãðàäèåíò_152" data-name="Áåçûìÿííûé ãðàäèåíò 152" x1="-435.63" y1="1135.25" x2="-435.63" y2="959.79" gradientTransform="scale(-1 1) rotate(4.4 12234.797 5371.692)" gradientUnits="userSpaceOnUse"><stop offset="0" stop-color="#ff8777"/><stop offset=".98" stop-color="#ffb880"/></linearGradient><linearGradient id="_Áåçûìÿííûé_ãðàäèåíò_151" data-name="Áåçûìÿííûé ãðàäèåíò 151" x1="-434.2" y1="1233.6" x2="-434.2" y2="1063.09" gradientTransform="scale(-1 1) rotate(4.4 12234.797 5371.692)" gradientUnits="userSpaceOnUse"><stop offset=".02" stop-color="#ffb880"/><stop offset="1" stop-color="#ff8777"/></linearGradient><linearGradient id="_Áåçûìÿííûé_ãðàäèåíò_59" data-name="Áåçûìÿííûé ãðàäèåíò 59" x1="-456.68" y1="1122.77" x2="-386.46" y2="1122.77" gradientTransform="scale(-1 1) rotate(4.4 12234.797 5371.692)" gradientUnits="userSpaceOnUse"><stop offset="0"/><stop offset=".04" stop-color="#0b0300"/><stop offset=".4" stop-color="#6a1e00"/><stop offset=".69" stop-color="#b03200"/><stop offset=".89" stop-color="#db3f00"/><stop offset="1" stop-color="#ec4400"/></linearGradient><style>.cls-2,.cls-3,.cls-5,.cls-6,.cls-7,.cls-8,.cls-9,.cls-10,.cls-14{stroke-width:0}.cls-2{fill:#f5ee8f}.cls-2,.cls-6,.cls-7,.cls-9{mix-blend-mode:soft-light;opacity:.97}.cls-3{fill:#f3bac0;opacity:.6}.cls-3,.cls-5,.cls-8,.cls-14{mix-blend-mode:multiply}.cls-5{opacity:.5}.cls-5,.cls-8,.cls-14{fill:#d87290}.cls-6{fill:#f5af8f}.cls-7{fill:#f5d3d2}.cls-8{opacity:.31}.cls-9{fill:#f5ffff}.cls-10{fill:#ab3d52}.cls-14{opacity:.3}</style></defs><g style="isolation:isolate"><g id="Layer_2" data-name="Layer 2"><g id="Layer_1-2" data-name="Layer 1"><path d="M12.27 68.93c.86 1.73 1.65 3.41 2.32 5.07 3.63 8.82 10.84 39.97 14.4 55.79 1.27 5.66 2.07 9.35 2.07 9.35s13.59 32.17 21.12 37.15c4.69 3.1 31.35-5.78 51.2-14.66 12.02-5.39 21.54-10.77 22.19-13.51 0 0 5.79-23.41 5.86-28.24.08-4.85-6.2-14.8-19.82-13.74l-.02-.09c-.29-.97-2.7-8.7-4.56-11.26-1.09-1.47-4.59-3.64-8.59-5.04-3.43-1.21-7.2-1.85-10.12-1.01-4.84 1.39-8.63 8.52-10.14 11.81-.42.9-.67 1.5-.72 1.64.05-.96 1.41-20.83 1.99-27.27.14-1.65.34-3.31.55-4.95 0-.05 0-.08.02-.11v-.09c.01-.05 0-.08 0-.08.62-4.81 1.33-9.09 1.08-10.47-.3-1.64.04-7.8.15-13.37.02-.77.02-1.53.03-2.27.04-6.02.93-18.9.56-26.23-.36-7.31-3.57-15.51-5.03-16.29-1.44-.77-11.99-2.44-15.98 1.23-3.76 3.48-4.61 31.52-2.35 51.7.12 1.17.26 2.31.4 3.41 0 0-.17 4.51-.46 10.97 0 0-.02.21-.02.57-.01.25-.03.6-.05 1.01-.02.35-.04.74-.05 1.18 0 .19-.02.38-.03.58-.72 16.23-1.91 40.67-2.76 42.49-1.28 2.75-4.74 4.2-6.67 2.34-1.93-1.85-12.49-38.57-13.24-44.31-.42-3.24-1.79-7.36-3.24-11.27v-.02c-1.12-3.04-2.25-5.97-3.03-8.29-1.26-3.77-4.77-19.34-7.93-29.08 0-.03-.02-.08-.02-.11-.02-.01-.02-.03-.02-.05v-.03l-.02-.05c-1.22-3.79-2.4-6.65-3.33-7.54C14.63 12.65.7 11.49.03 30.01c-.58 15.95 6.98 28.18 12.24 38.92Z" style="fill:url(#_Áåçûìÿííûé_ãðàäèåíò_152);stroke-width:0"/><path class="cls-5" d="M38.81 106.05 40 144.37l50.05 18.28 13.33-1.03c12.02-5.39 21.54-10.77 22.19-13.51 0 0 5.79-23.41 5.86-28.24l-6.6 3.27.8-7.21-3.71 5.44s-2.24 4.34-3.21 4.71c-.96.37-15.8.92-17.52-7.08 0 0 6.66-10.27 10.42-12.87l-.02-.09c-.29-.97-2.7-8.7-4.56-11.26 0 0-4.82 10.24-6.53 15.25-1.71 4.99-21.87 3.44-25.02-1.36l2.69-8.13L80 69.86s-.03.06-.02.11c-.49 2.84-4.52 25.95-6.28 28.52-1.88 2.72-13.06 2.11-14.77-1.55-1.32-2.82-.91-18.3-.67-25.22-.72 16.23-1.91 40.67-2.76 42.49-1.28 2.75-4.74 4.2-6.67 2.34-1.93-1.85-12.49-38.57-13.24-44.31-.42-3.24-1.79-7.36-3.24-11.27l6.46 45.08Z"/><path class="cls-8" d="M12.27 68.93c.86 1.73 1.65 3.41 2.32 5.07 3.63 8.82 10.84 39.97 14.4 55.79l36.06-.56s14.62-31.98 13.12-28.69c-.42.9-.67 1.5-.72 1.64.05-.96 1.41-20.83 1.99-27.27.14-1.65.34-3.31.55-4.95 0-.05 0-.08.02-.11v-.09c.01-.05 0-.08 0-.08.62-4.81 1.33-9.09 1.08-10.47-.3-1.64.04-7.8.15-13.37l-.21-.24s-1.71 11.84-5.29 14.11c-3.57 2.26-13.12 3.79-17.17-5.53-.04-.08-.07-.14-.11-.2.12 1.17.26 2.31.4 3.41 0 0-.17 4.51-.46 10.97 0 0-.02.21-.02.57-.01.25-.03.6-.05 1.01-.02.35-.04.74-.05 1.18 0 .19-.02.38-.03.58-.72 16.23-1.91 40.67-2.76 42.49-1.28 2.75-4.74 4.2-6.67 2.34-1.93-1.85-12.49-38.57-13.24-44.31-.42-3.24-1.79-7.36-3.24-11.27v-.02c-1.12-3.04-2.25-5.97-3.03-8.29-1.26-3.77-4.77-19.34-7.93-29.08.63 3.31 7.74 39.89 6.31 43.6-1.26 3.27-9.93 5.42-15.44 1.74Z"/><path d="M24.28 176.72h.02c4.05 3.44 33 18.65 36.79 25.47 2.46 4.42 1.78 31.42.97 50.1v.02c-.23 5.35-.47 10-.64 13.25h47.55c-.96-8.56-7-62.64-6.38-63.95.69-1.41 12-7.3 13.91-10.82.59-1.08 1.26-2.64 1.9-4.47v-.02c1.49-4.15 2.91-9.73 3.25-14.38.27-3.67 1.43-10.44 2.4-15.84v-.03c.83-4.45 1.54-7.94 1.54-7.94-6.47 4.99-39.79 9.26-39.79 9.26-4.2-3.75-12.88-8.28-20.96-12.15-1.83-.88-3.62-1.73-5.33-2.53-.05-.01-.08-.04-.13-.05-6.75-3.11-12.02-5.41-12.09-5.78-.16-.88-.59-9.09-.59-9.09s11.51 1.3 16.82.59c5.31-.71 21.01-10.66 21.21-14.63.14-3.06-.88-7.6-2.42-9.76-.05-.07-.09-.13-.11-.16 0 0-.02 0-.02-.01v-.02h-.02c-.42-.55-.89-.91-1.37-1.01-2.31-.45-12.02 2.47-24.1 2.8-12.09.33-19.72.42-22.47.83s-7.8 4.47-8.11 5.5c-.31 1.01-1.55 17.28-3.17 24.61-1.07 4.86-4.51 13.47-6.43 19.78-.98 3.19-1.58 5.8-1.28 7.01.88 3.66 5.08 10.03 9.07 13.43Z" style="stroke-width:0;fill:url(#_Áåçûìÿííûé_ãðàäèåíò_151)"/><path class="cls-8" d="M82.15 103.77h.02s0 .01 0 0h-.02ZM85.79 157.37c-4.2-3.75-12.88-8.28-20.96-12.15 12.89 6.99 22.34 18.49 22.34 18.49 17.18 6.11 26.85 16.62 31.23 22.6 1.49-4.15 2.91-9.73 3.25-14.38.27-3.67 1.43-10.44 2.4-15.84v-.03c.83-4.45 1.54-7.94 1.54-7.94-6.47 4.99-39.79 9.26-39.79 9.26ZM64.82 145.21c-1.72-.94-3.5-1.79-5.33-2.53 1.71.8 3.51 1.65 5.33 2.53ZM16.5 156.27c11.54-2.87 29.93-16.31 29.93-16.31 4.43-.01 8.8 1.02 12.94 2.67-6.75-3.11-12.02-5.41-12.09-5.78-.16-.88-.59-9.09-.59-9.09s11.51 1.3 16.82.59 21.01-10.66 21.21-14.63c.14-3.06-.88-7.6-2.42-9.76.65 1.08 3.43 6.34-1.25 11.15-5.24 5.39-33.61 10.12-38.53 8.26-4.91-1.85-16.41-11.48-16.41-11.48-.31 1.01-1.55 17.28-3.17 24.61-1.07 4.86-4.51 13.47-6.43 19.78Z"/><path class="cls-5" d="M46.68 127.76 37.36 126l9.43 4.64-.11-2.88z"/><path class="cls-5" d="m46.68 127.76.59 9.09s19.07-.07 38.52 20.52c0 0 17.45-1.76 27.4-4.83l5.7-8.1 5.95-21.3.8-7.21-4.38 8.97s-2.44 8.97-3.56 11.74c-1.13 2.77-7.33 7.27-9.63 7.37-2.3.1-8.86-2.97-9.72-4.46-.86-1.5 2.86-20.54 2.86-20.54s6.84-9.92 10.42-12.87c0 0-9.65 6.03-11.14 8.01-1.49 1.98-5.38 20-8.5 22.02-3.12 2.03-10.51.81-12.63-.59-2.12-1.4-4.65-12.45-4.65-12.45s-8.49 4.77-11.19 5.23c-2.7.46-16.82-.59-16.82-.59Z"/><path class="cls-6" d="M79.26 102.76c1.51-.15 3.06 6 .59 7.61-2.48 1.6-18.9 2.05-23-.99-4.11-3.03 5.79-4.95 22.42-6.62Z"/><path d="M79.23 110.66s-4.15 1.79-12.2 1.56c-8.05-.24-13.51-3.05-13.96-4.47-.44-1.42 8.27-2.44 8.27-2.44s-5.47 1.32-5.13 3.09c.34 1.77 13.81 5.03 23.02 2.26Z" style="fill:#e86c7c;stroke-width:0"/><path class="cls-7" d="M77.39 102.9s1.36 4.11.69 8.07c0 0 1.14-.18 2.01-.78.87-.6 1.97-5.56-.83-7.42l-1.87.14ZM61.35 105.3s1.51.87 1.3 2c-.21 1.13-5.16 2.1-5.16 2.1s-1.49-.4-1.18-1.56c.3-1.16 5.05-2.55 5.05-2.55Z"/><path class="cls-6" d="M99.11 138.94s.77 3.63 8.29 4.6c.33.04.65-.3.94-.91.91-1.88 1.44-6.18.68-8.92l-.1-.31c-.04-.15-.09-.31-.14-.44-.02-.03-.02-.06-.04-.08-.94-2.03-4.32-2.64-6.8-.78-1.37 1.02-2.46 2.78-2.74 5.46 0 .02 0 .03-.01.05-.05.41-.08.85-.07 1.33ZM78.82 134.09c.14.34.27.59.4.75.95 1.17 5.94 3.72 10.4.99.12-.07.22-.16.33-.26.45-.46.74-1.24.9-2.18v-.05c.5-3.06-.37-8-2.1-10.95-.58-.95-1.23-1.7-1.95-2.1-3.13-1.72-6.47-.19-8.03 2.21-.03.03-.04.07-.06.1-.27.41-.48.85-.64 1.31-.04.11-.08.23-.1.35-.71 2.84.03 7.76.85 9.82Z"/><path class="cls-5" d="m78.76 122.51-.39.86c1.4-2.07 6.19-4.78 9.21-1.24 3.2 3.76 3.28 10.18 3.27 11.22.66-4.04-1.07-11.41-4.05-13.05-3.13-1.72-6.47-.19-8.03 2.21ZM77.97 124.27l.4-.9c-.14.18-.24.36-.3.54-.04.11-.08.23-.1.35ZM99.19 137.57c.3-1.2 1.85-6.59 6.59-5.32 5.23 1.4 2.65 10.08 2.56 10.38.99-2.06 1.56-7.04.43-9.67-1.38-3.23-8.8-3.02-9.58 4.6Z"/><path class="cls-7" d="M99.11 138.94s.77 3.63 8.29 4.6c.33.04.65-.3.94-.91 0 0-5.76-.15-9.23-3.69ZM78.82 134.09c.14.34.27.59.4.75.95 1.17 5.94 3.72 10.4.99.12-.07.22-.16.33-.26-1.65.24-7.06.78-11.13-1.48Z"/><path class="cls-10" d="M74.68 123.13s-8.44 6.11-11.46 6.84c-3.02.73-15.39-1.3-15.95 6.89l-.59-9.09s12.59 1.2 16.82.59c4.23-.6 11.19-5.23 11.19-5.23ZM79.06 135.34s.47 1.42 9.19 3.82c8.72 2.41 17.86 5.87 20.27 5.79 2.41-.09 8.66-7.39 8.66-7.39s-7.13 6.83-9.12 6.46-8.49-2.9-9.72-4.46c-1.24-1.57 1.82-14.93 1.82-14.93s-3.4 7.31-7.11 10.31c-3.72 2.99-11.57 2.8-13.98.41Z"/><path class="cls-10" d="M84.7 113.72s-1.01 4.72-9.5 11.49l-4.71.36s9.03-4.3 14.21-11.85Z"/><path class="cls-3" d="M62.06 252.23c.59-2.4 12.5-53.6 3.94-59.73-8.65-6.17-40.7-15.57-41.7-15.76 4.05 3.43 33 18.63 36.79 25.46 2.46 4.42 1.77 31.36.98 50.03Z"/><path class="cls-3" d="M61.09 202.19c2.46 4.42 1.78 31.42.97 50.1v.02c-.23 5.35-.47 10-.64 13.25h47.55c-.96-8.56-7-62.64-6.38-63.95.69-1.41 12-7.3 13.91-10.82 0 0-9.5 2.96-27.26 2.15-17.76-.82-64.94-16.2-64.94-16.2 4.05 3.43 33 18.63 36.79 25.46Z"/><path class="cls-5" d="M24.3 176.74c4.05 3.43 33 18.63 36.79 25.46l4.91-9.7c-8.65-6.17-40.7-15.57-41.7-15.76Z"/><path d="M94.81 180.35c1.35 5.84-40.29 4.95-58.66-6.2-12.79-7.76-13.78-14.1-13.37-17.19s16.05-14.32 28.52-13.64c12.47.68 39.65 20.31 43.52 37.03Z" style="fill:url(#_Áåçûìÿííûé_ãðàäèåíò_59);mix-blend-mode:screen;stroke-width:0"/><path d="M90.62 169.95s-7.88-21.08-43.35-33.1c0 0 35.43 3.73 43.35 33.1Z" style="fill:#b24d61;stroke-width:0"/><path class="cls-2" d="M104.57 93.73s-11.9-.68-16.7-3.63c0 0 8.79-2.9 16.7 3.63ZM125.3 111.64s-9.25-.04-13.69-5.5c0 0 9.23-2.2 13.69 5.5ZM76.3 1.99s-9.45 2.5-15.47.29c0 0 8.66-3.83 15.47-.29ZM18 15.81S6.94 20.39 1.77 25.55c0 0 .85-6.24 4.98-8.87 4.13-2.63 11.25-.87 11.25-.87Z"/><path class="cls-14" d="M117.64 126.22s-4.61 1.69-10.5.81c-5.89-.89-5.71-7.21-5.71-7.21s3.26 6.79 16.21 6.4ZM97.78 112.18s-8.42 3.09-13.66 3.03c0 0 .5-1.32.49-2.64 0 0 2.91.76 13.17-.39Z"/><path d="m118.51 128.59-5.27 11.43s3.66-3.03 3.82-4c.16-.97 1.45-7.43 1.45-7.43Z" style="fill:#f5a995;mix-blend-mode:soft-light;opacity:.97;stroke-width:0"/><path class="cls-9" d="M39.29 178.2s-10.83-1.43-13.06-3.3-9.81-8.52-10.17-12.17c-.36-3.65 6.45-22.57 6.45-22.57s-4.77 17.18-3.04 22.3c1.73 5.13 9.99 12.85 19.82 15.73ZM102.15 261.73c-.86 1.4-2 2.7-3.16 3.83h4.71c1.26-.67 2.28-1.34 2.77-1.93 2.01-2.41-5.88-58.96-5.88-58.96s4.34 52.53 1.56 57.06ZM121.97 154.58s-1.45 23.24-4.33 30.72-13.78 12.91-13.78 12.91 7.86-5.57 11.64-15.89c3.77-10.32 6.48-27.75 6.48-27.75ZM77.16 4.11s2.55 4.75 2.94 14.95c.39 10.2-.56 40.75-.56 40.75S77.5 7.16 77.16 4.1ZM2.03 28.86s4.98 27.31 13.04 40.49c0 0-8.42-11.17-11.72-23.32-3.3-12.15-1.32-17.17-1.32-17.17ZM63.22 265.56h.22c1.39-8.85 4.87-35.35 1.04-58.11 0 0 .06 41.45-1.26 58.11ZM52.6 105.97s-8.39 2.19-12.77 1.93c-4.38-.26-5.63-1.52-5.63-1.52l18.4-.42Z"/><path class="cls-6" d="M26.09 111.89s4.03.76 6.9-.59c2.87-1.36 1.21-4.9 1.21-4.9s-3.87 1.31-8.11 5.5Z"/><path class="cls-5" d="m84.7 113.72-1.18-2.2s-.13-6.55-2.74-8.77c0 0 3.86 1.05 3.93 10.97Z"/></g></g></g></svg>